<svg width="226" height="100" viewBox="0 0 226 100" fill="none" xmlns="http://www.w3.org/2000/svg">
<path d="M0.0117643 0.906443C12.4528 -1.68912 40.9839 -0.830513 55.316 33.0416C73.2311 75.3818 110.475 45.671 127.972 45.2085C146.384 44.7219 163.304 57.771 225.012 60.691V78.9062L219.04 89.2877L208.092 96.101L0.0117824 99.9067L0.0117871 42.4062C0.00713559 31.6995 0.01175 11.1266 0.0117643 0.906443Z" fill="#FFC0CB"/>
<path d="M0.0117733 1.90666C12.4528 -0.688907 39.9886 2.9751 54.3207 36.8472C72.2357 79.1874 109.48 49.4766 126.976 49.0142C145.389 48.5275 163.304 61.4862 225.012 64.4062V78.9062L224.93 82.4739L222.437 88.967L218.037 94.3203L215.012 96.4062L213.512 97.4062L211.012 98.4062L208.012 99.4062L205.012 99.9067H0.0117824L0.0117927 45.9062C0.0195503 35.1995 -0.0182469 11.6433 0.0117733 1.90666Z" fill="#FF7B92"/>
</svg>
