<svg width="250" height="76" viewBox="0 0 250 76" fill="none" xmlns="http://www.w3.org/2000/svg">
<path d="M92.9453 41H90.1328V23.7266H95.1016C95.8359 23.7266 96.5625 23.8438 97.2812 24.0781C98 24.3125 98.6406 24.6641 99.2031 25.1328C99.7812 25.6016 100.242 26.1719 100.586 26.8438C100.945 27.5 101.125 28.2422 101.125 29.0703C101.125 29.9453 100.977 30.7422 100.68 31.4609C100.383 32.1641 99.9688 32.7578 99.4375 33.2422C98.9062 33.7266 98.2656 34.1016 97.5156 34.3672C96.7656 34.6328 95.9375 34.7656 95.0312 34.7656H92.9453V41ZM92.9453 25.8594V32.7031H95.5234C95.8672 32.7031 96.2031 32.6484 96.5312 32.5391C96.875 32.4141 97.1875 32.2188 97.4688 31.9531C97.75 31.6875 97.9766 31.3203 98.1484 30.8516C98.3203 30.3672 98.4062 29.7734 98.4062 29.0703C98.4062 28.7891 98.3672 28.4688 98.2891 28.1094C98.2109 27.7344 98.0469 27.3828 97.7969 27.0547C97.5625 26.7109 97.2266 26.4297 96.7891 26.2109C96.3516 25.9766 95.7734 25.8594 95.0547 25.8594H92.9453ZM107.031 41H104.172V27.7812H107.031V41ZM107.289 23.5625C107.289 24.0312 107.125 24.4297 106.797 24.7578C106.469 25.0703 106.07 25.2266 105.602 25.2266C105.133 25.2266 104.734 25.0625 104.406 24.7344C104.094 24.4062 103.938 24.0156 103.938 23.5625C103.938 23.0938 104.102 22.6953 104.43 22.3672C104.758 22.0391 105.148 21.875 105.602 21.875C106.07 21.875 106.469 22.0391 106.797 22.3672C107.125 22.6953 107.289 23.0938 107.289 23.5625ZM121.961 41H119.102V33.8047C119.102 33.2734 119.078 32.7656 119.031 32.2812C118.984 31.7969 118.875 31.3672 118.703 30.9922C118.531 30.6172 118.297 30.3281 118 30.125C117.703 29.9062 117.289 29.7969 116.758 29.7969C116.586 29.7969 116.359 29.8203 116.078 29.8672C115.812 29.9141 115.531 29.9844 115.234 30.0781C114.953 30.1719 114.68 30.2891 114.414 30.4297C114.164 30.5703 113.977 30.7344 113.852 30.9219V31.0625V31.1094V36.3125V36.3594V41H111.016V27.7812H113.547L113.852 29.1172C114.039 28.9453 114.273 28.7734 114.555 28.6016C114.852 28.4141 115.172 28.25 115.516 28.1094C115.859 27.9688 116.211 27.8594 116.57 27.7812C116.93 27.6875 117.281 27.6406 117.625 27.6406C118.328 27.6406 118.922 27.7891 119.406 28.0859C119.891 28.3828 120.375 28.7656 120.859 29.2344C121.125 29.5 121.328 29.8125 121.469 30.1719C121.625 30.5156 121.734 30.8828 121.797 31.2734C121.875 31.6484 121.922 32.0312 121.938 32.4219C121.953 32.8125 121.961 33.1953 121.961 33.5703V40.5312V41ZM133.539 41L128.734 34.6719V41H125.875V22.7891H128.734V34.0859L132.977 27.7812H136.164L131.523 34.3672L136.773 41H133.539ZM160.258 31.8828C160.258 33.3047 160.102 34.5234 159.789 35.5391C159.492 36.5391 159.109 37.3828 158.641 38.0703C158.172 38.7422 157.641 39.2734 157.047 39.6641C156.469 40.0547 155.906 40.3516 155.359 40.5547C154.812 40.7422 154.312 40.8672 153.859 40.9297C153.406 40.9766 153.07 41 152.852 41H146.312V23.7266H151.516C152.969 23.7266 154.242 23.9609 155.336 24.4297C156.445 24.8828 157.359 25.4922 158.078 26.2578C158.812 27.0234 159.359 27.8984 159.719 28.8828C160.078 29.8516 160.258 30.8516 160.258 31.8828ZM151.914 38.9375C153.82 38.9375 155.195 38.3281 156.039 37.1094C156.883 35.8906 157.305 34.125 157.305 31.8125C157.305 31.0938 157.219 30.3828 157.047 29.6797C156.875 28.9766 156.539 28.3438 156.039 27.7812C155.555 27.2031 154.891 26.7422 154.047 26.3984C153.203 26.0391 152.109 25.8594 150.766 25.8594H149.125V38.9375H151.914ZM166.961 41H164.102V27.7812H166.961V41ZM167.219 23.5625C167.219 24.0312 167.055 24.4297 166.727 24.7578C166.398 25.0703 166 25.2266 165.531 25.2266C165.062 25.2266 164.664 25.0625 164.336 24.7344C164.023 24.4062 163.867 24.0156 163.867 23.5625C163.867 23.0938 164.031 22.6953 164.359 22.3672C164.688 22.0391 165.078 21.875 165.531 21.875C166 21.875 166.398 22.0391 166.727 22.3672C167.055 22.6953 167.219 23.0938 167.219 23.5625ZM180.531 36.8984V37.0859C180.531 37.2109 180.539 37.3984 180.555 37.6484C180.57 37.8828 180.602 38.125 180.648 38.375C180.695 38.625 180.766 38.8516 180.859 39.0547C180.969 39.2578 181.109 39.3906 181.281 39.4531L180.531 41.0234C180.328 41.0234 180.109 40.9766 179.875 40.8828C179.656 40.7891 179.438 40.6562 179.219 40.4844C179.016 40.3125 178.836 40.125 178.68 39.9219C178.539 39.7031 178.43 39.4688 178.352 39.2188C178.242 39.4844 178.047 39.7344 177.766 39.9688C177.5 40.1875 177.195 40.3906 176.852 40.5781C176.508 40.75 176.133 40.8828 175.727 40.9766C175.336 41.0703 174.969 41.1172 174.625 41.1172C174.094 41.1172 173.578 41.0469 173.078 40.9062C172.594 40.7656 172.164 40.5391 171.789 40.2266C171.414 39.9141 171.117 39.5 170.898 38.9844C170.695 38.4688 170.594 37.8359 170.594 37.0859C170.594 36.3672 170.742 35.75 171.039 35.2344C171.352 34.7031 171.742 34.2734 172.211 33.9453C172.695 33.6016 173.242 33.3516 173.852 33.1953C174.461 33.0234 175.078 32.9375 175.703 32.9375H177.695C177.695 32.1719 177.656 31.5625 177.578 31.1094C177.5 30.6562 177.367 30.3281 177.18 30.125C176.992 29.9062 176.758 29.7734 176.477 29.7266C176.211 29.6641 175.891 29.6328 175.516 29.6328C175.172 29.6328 174.844 29.6797 174.531 29.7734C174.234 29.8516 173.953 29.9531 173.688 30.0781C173.438 30.1875 173.211 30.3125 173.008 30.4531C172.82 30.5938 172.68 30.7031 172.586 30.7812L171.531 29.1641C171.688 28.9922 171.922 28.8203 172.234 28.6484C172.547 28.4609 172.906 28.2969 173.312 28.1562C173.719 28.0156 174.156 27.9062 174.625 27.8281C175.109 27.7344 175.609 27.6875 176.125 27.6875C176.594 27.6875 177.047 27.7344 177.484 27.8281C177.938 27.9219 178.344 28.0781 178.703 28.2969C179.078 28.5156 179.398 28.8125 179.664 29.1875C179.945 29.5469 180.141 30 180.25 30.5469C180.359 31.0938 180.43 31.6484 180.461 32.2109C180.508 32.7578 180.531 33.3047 180.531 33.8516V36.8984ZM177.719 34.6016H176.219C175.906 34.6016 175.578 34.6328 175.234 34.6953C174.891 34.7578 174.57 34.875 174.273 35.0469C173.977 35.2188 173.727 35.4688 173.523 35.7969C173.336 36.1094 173.242 36.5156 173.242 37.0156C173.242 37.7969 173.414 38.3594 173.758 38.7031C174.117 39.0469 174.633 39.2188 175.305 39.2188C175.773 39.2188 176.219 39.0938 176.641 38.8438C177.078 38.5938 177.438 38.2578 177.719 37.8359V34.6016ZM202.469 40.5547V41H199.656V33.8047C199.656 33.2734 199.648 32.7734 199.633 32.3047C199.633 31.8203 199.586 31.3906 199.492 31.0156C199.398 30.6406 199.242 30.3516 199.023 30.1484C198.82 29.9297 198.5 29.8203 198.062 29.8203C197.984 29.8203 197.844 29.8359 197.641 29.8672C197.453 29.8828 197.227 29.9297 196.961 30.0078C196.695 30.0703 196.398 30.1797 196.07 30.3359C195.758 30.4922 195.445 30.6953 195.133 30.9453C195.133 31.5547 195.133 32.0391 195.133 32.3984C195.148 32.7578 195.156 33.1484 195.156 33.5703V41H192.32V33.8047C192.32 33.2734 192.32 32.7734 192.32 32.3047C192.32 31.8203 192.273 31.3906 192.18 31.0156C192.086 30.6406 191.93 30.3516 191.711 30.1484C191.492 29.9297 191.172 29.8203 190.75 29.8203C190.609 29.8203 190.414 29.8438 190.164 29.8906C189.914 29.9219 189.648 29.9844 189.367 30.0781C189.102 30.1719 188.828 30.2891 188.547 30.4297C188.281 30.5703 188.055 30.7344 187.867 30.9219V41H185.008V27.7812H187.562L187.867 29.1406C188.258 28.7812 188.758 28.4531 189.367 28.1562C189.992 27.8438 190.641 27.6875 191.312 27.6875C192.062 27.6875 192.688 27.8516 193.188 28.1797C193.688 28.5078 194.188 28.9922 194.688 29.6328C194.953 29.3359 195.25 29.0625 195.578 28.8125C195.906 28.5625 196.242 28.3516 196.586 28.1797C196.945 28.0078 197.297 27.875 197.641 27.7812C197.984 27.6875 198.312 27.6406 198.625 27.6406C199.156 27.6406 199.656 27.75 200.125 27.9688C200.594 28.1719 201 28.4688 201.344 28.8594C201.703 29.25 201.977 29.7188 202.164 30.2656C202.367 30.7969 202.469 31.375 202.469 32V33.5703V40.5547ZM212.383 27.7109C213.289 27.7109 214.109 27.8906 214.844 28.25C215.578 28.5938 216.203 29.0703 216.719 29.6797C217.234 30.2891 217.633 31 217.914 31.8125C218.195 32.625 218.336 33.5 218.336 34.4375C218.336 35.375 218.188 36.2578 217.891 37.0859C217.594 37.8984 217.172 38.6094 216.625 39.2188C216.094 39.8125 215.453 40.2812 214.703 40.625C213.969 40.9531 213.148 41.1172 212.242 41.1172C211.32 41.1172 210.477 40.9453 209.711 40.6016C208.961 40.2578 208.32 39.7812 207.789 39.1719C207.273 38.5625 206.875 37.8516 206.594 37.0391C206.312 36.2266 206.172 35.3438 206.172 34.3906C206.172 33.4375 206.32 32.5469 206.617 31.7188C206.93 30.8906 207.352 30.1875 207.883 29.6094C208.43 29.0156 209.086 28.5547 209.852 28.2266C210.617 27.8828 211.461 27.7109 212.383 27.7109ZM212.195 38.8906C212.664 38.8906 213.086 38.7812 213.461 38.5625C213.852 38.3281 214.18 38.0156 214.445 37.625C214.727 37.2188 214.945 36.7422 215.102 36.1953C215.273 35.6484 215.359 35.0625 215.359 34.4375C215.359 33.8125 215.281 33.2266 215.125 32.6797C214.984 32.1328 214.781 31.6562 214.516 31.25C214.266 30.8281 213.953 30.4922 213.578 30.2422C213.203 29.9922 212.781 29.8672 212.312 29.8672C211.844 29.8672 211.414 29.9844 211.023 30.2188C210.633 30.4531 210.297 30.7734 210.016 31.1797C209.75 31.5703 209.539 32.0391 209.383 32.5859C209.242 33.1172 209.172 33.6953 209.172 34.3203C209.172 34.9453 209.234 35.5391 209.359 36.1016C209.5 36.6484 209.703 37.125 209.969 37.5312C210.234 37.9375 210.547 38.2656 210.906 38.5156C211.281 38.7656 211.711 38.8906 212.195 38.8906ZM232.961 41H230.102V33.8047C230.102 33.2734 230.078 32.7656 230.031 32.2812C229.984 31.7969 229.875 31.3672 229.703 30.9922C229.531 30.6172 229.297 30.3281 229 30.125C228.703 29.9062 228.289 29.7969 227.758 29.7969C227.586 29.7969 227.359 29.8203 227.078 29.8672C226.812 29.9141 226.531 29.9844 226.234 30.0781C225.953 30.1719 225.68 30.2891 225.414 30.4297C225.164 30.5703 224.977 30.7344 224.852 30.9219V31.0625V31.1094V36.3125V36.3594V41H222.016V27.7812H224.547L224.852 29.1172C225.039 28.9453 225.273 28.7734 225.555 28.6016C225.852 28.4141 226.172 28.25 226.516 28.1094C226.859 27.9688 227.211 27.8594 227.57 27.7812C227.93 27.6875 228.281 27.6406 228.625 27.6406C229.328 27.6406 229.922 27.7891 230.406 28.0859C230.891 28.3828 231.375 28.7656 231.859 29.2344C232.125 29.5 232.328 29.8125 232.469 30.1719C232.625 30.5156 232.734 30.8828 232.797 31.2734C232.875 31.6484 232.922 32.0312 232.938 32.4219C232.953 32.8125 232.961 33.1953 232.961 33.5703V40.5312V41ZM237.766 39.6641C237.172 38.9922 236.734 38.1641 236.453 37.1797C236.172 36.1953 236.031 35.2031 236.031 34.2031C236.031 32.9844 236.195 31.9609 236.523 31.1328C236.867 30.3047 237.305 29.6328 237.836 29.1172C238.367 28.6016 238.953 28.2344 239.594 28.0156C240.25 27.7812 240.891 27.6641 241.516 27.6641C242.281 27.6641 242.977 27.7969 243.602 28.0625C244.242 28.3281 244.719 28.6797 245.031 29.1172V22.7891H247.891V41H245.195C245.164 40.7344 245.133 40.4688 245.102 40.2031C245.086 39.9219 245.062 39.6641 245.031 39.4297C244.984 39.6328 244.844 39.8359 244.609 40.0391C244.391 40.2422 244.102 40.4297 243.742 40.6016C243.398 40.7578 243.008 40.8828 242.57 40.9766C242.133 41.0703 241.68 41.1172 241.211 41.1172C240.586 41.1172 239.969 41.0078 239.359 40.7891C238.766 40.5703 238.234 40.1953 237.766 39.6641ZM239.031 34.4141C239.031 35.0391 239.109 35.625 239.266 36.1719C239.422 36.7031 239.633 37.1719 239.898 37.5781C240.164 37.9844 240.484 38.3047 240.859 38.5391C241.25 38.7734 241.672 38.8906 242.125 38.8906C242.609 38.8906 243.039 38.7734 243.414 38.5391C243.805 38.2891 244.133 37.9609 244.398 37.5547C244.664 37.1484 244.867 36.6719 245.008 36.125C245.148 35.5781 245.219 34.9922 245.219 34.3672C245.219 33.7422 245.141 33.1562 244.984 32.6094C244.844 32.0625 244.633 31.5859 244.352 31.1797C244.086 30.7734 243.758 30.4531 243.367 30.2188C242.992 29.9688 242.562 29.8438 242.078 29.8438C241.594 29.8438 241.164 29.9688 240.789 30.2188C240.414 30.4531 240.094 30.7812 239.828 31.2031C239.578 31.625 239.383 32.1094 239.242 32.6562C239.102 33.2031 239.031 33.7891 239.031 34.4141Z" fill="white"/>
<path d="M131.941 56.0547C131.941 56.5755 131.831 57.0833 131.609 57.5781C131.401 58.0599 131.102 58.4896 130.711 58.8672C130.32 59.2318 129.839 59.5247 129.266 59.7461C128.693 59.9674 128.042 60.0781 127.312 60.0781C127 60.0781 126.674 60.0586 126.336 60.0195C126.01 59.9935 125.678 59.9414 125.34 59.8633C125.001 59.7852 124.676 59.681 124.363 59.5508C124.064 59.4076 123.803 59.2383 123.582 59.043L123.992 57.3633C124.174 57.4674 124.402 57.5716 124.676 57.6758C124.962 57.7669 125.255 57.8581 125.555 57.9492C125.854 58.0273 126.154 58.0924 126.453 58.1445C126.753 58.1966 127.033 58.2227 127.293 58.2227C128.087 58.2227 128.693 58.0404 129.109 57.6758C129.539 57.2982 129.754 56.7448 129.754 56.0156C129.754 55.5729 129.604 55.1953 129.305 54.8828C129.005 54.5703 128.628 54.2904 128.172 54.043C127.729 53.7826 127.247 53.5286 126.727 53.2812C126.206 53.0208 125.717 52.7214 125.262 52.3828C124.806 52.0312 124.428 51.6211 124.129 51.1523C123.829 50.6836 123.68 50.0977 123.68 49.3945C123.68 48.7565 123.797 48.1901 124.031 47.6953C124.266 47.2005 124.578 46.7839 124.969 46.4453C125.372 46.0938 125.835 45.8268 126.355 45.6445C126.889 45.4622 127.449 45.3711 128.035 45.3711C128.634 45.3711 129.24 45.4297 129.852 45.5469C130.464 45.651 130.958 45.8268 131.336 46.0742C131.258 46.2435 131.167 46.4323 131.062 46.6406C130.958 46.8359 130.861 47.0247 130.77 47.207C130.678 47.3763 130.6 47.5195 130.535 47.6367C130.47 47.7539 130.431 47.819 130.418 47.832C130.34 47.793 130.249 47.7409 130.145 47.6758C130.053 47.6107 129.917 47.5456 129.734 47.4805C129.552 47.4154 129.311 47.3698 129.012 47.3438C128.712 47.3177 128.328 47.3242 127.859 47.3633C127.599 47.3893 127.352 47.4674 127.117 47.5977C126.883 47.7148 126.674 47.8646 126.492 48.0469C126.31 48.2292 126.167 48.4375 126.062 48.6719C125.958 48.8932 125.906 49.1081 125.906 49.3164C125.906 49.8372 126.056 50.2604 126.355 50.5859C126.655 50.8984 127.026 51.1784 127.469 51.4258C127.911 51.6602 128.393 51.8945 128.914 52.1289C129.435 52.3503 129.917 52.6237 130.359 52.9492C130.815 53.2747 131.193 53.6849 131.492 54.1797C131.792 54.6615 131.941 55.2865 131.941 56.0547ZM140.652 60L136.648 54.7266V60H134.266V44.8242H136.648V54.2383L140.184 48.9844H142.84L138.973 54.4727L143.348 60H140.652ZM148.113 60H145.73V48.9844H148.113V60ZM148.328 45.4688C148.328 45.8594 148.191 46.1914 147.918 46.4648C147.645 46.7253 147.312 46.8555 146.922 46.8555C146.531 46.8555 146.199 46.7188 145.926 46.4453C145.665 46.1719 145.535 45.8464 145.535 45.4688C145.535 45.0781 145.672 44.7461 145.945 44.4727C146.219 44.1992 146.544 44.0625 146.922 44.0625C147.312 44.0625 147.645 44.1992 147.918 44.4727C148.191 44.7461 148.328 45.0781 148.328 45.4688ZM160.555 60H158.172V54.0039C158.172 53.5612 158.152 53.138 158.113 52.7344C158.074 52.3307 157.983 51.9727 157.84 51.6602C157.697 51.3477 157.501 51.1068 157.254 50.9375C157.007 50.7552 156.661 50.6641 156.219 50.6641C156.076 50.6641 155.887 50.6836 155.652 50.7227C155.431 50.7617 155.197 50.8203 154.949 50.8984C154.715 50.9766 154.487 51.0742 154.266 51.1914C154.057 51.3086 153.901 51.4453 153.797 51.6016V51.7188V51.7578V56.0938V56.1328V60H151.434V48.9844H153.543L153.797 50.0977C153.953 49.9544 154.148 49.8112 154.383 49.668C154.63 49.5117 154.897 49.375 155.184 49.2578C155.47 49.1406 155.763 49.0495 156.062 48.9844C156.362 48.9062 156.655 48.8672 156.941 48.8672C157.527 48.8672 158.022 48.9909 158.426 49.2383C158.829 49.4857 159.233 49.8047 159.637 50.1953C159.858 50.4167 160.027 50.6771 160.145 50.9766C160.275 51.263 160.366 51.569 160.418 51.8945C160.483 52.207 160.522 52.526 160.535 52.8516C160.548 53.1771 160.555 53.4961 160.555 53.8086V59.6094V60ZM179.031 58.5352C178.497 59.056 177.892 59.4466 177.215 59.707C176.538 59.9674 175.809 60.0977 175.027 60.0977C174.168 60.0977 173.374 59.9414 172.645 59.6289C171.928 59.3164 171.297 58.8542 170.75 58.2422C170.216 57.6302 169.793 56.862 169.48 55.9375C169.181 55.013 169.031 53.9453 169.031 52.7344C169.031 51.5234 169.181 50.4622 169.48 49.5508C169.793 48.6263 170.216 47.8581 170.75 47.2461C171.297 46.6341 171.935 46.1719 172.664 45.8594C173.393 45.5339 174.181 45.3711 175.027 45.3711C175.809 45.3711 176.538 45.5013 177.215 45.7617C177.892 46.0221 178.497 46.4128 179.031 46.9336L177.41 48.3789C177.085 48.0013 176.72 47.7279 176.316 47.5586C175.926 47.3893 175.516 47.3047 175.086 47.3047C174.604 47.3047 174.142 47.3958 173.699 47.5781C173.27 47.7604 172.879 48.0729 172.527 48.5156C172.189 48.9453 171.922 49.5052 171.727 50.1953C171.531 50.8854 171.427 51.7318 171.414 52.7344C171.427 53.7109 171.525 54.5443 171.707 55.2344C171.902 55.9245 172.163 56.4909 172.488 56.9336C172.827 57.3633 173.204 57.6823 173.621 57.8906C174.051 58.0859 174.5 58.1836 174.969 58.1836C175.438 58.1836 175.874 58.099 176.277 57.9297C176.694 57.7604 177.072 57.487 177.41 57.1094L179.031 58.5352ZM190.262 56.582V56.7383C190.262 56.8424 190.268 56.9987 190.281 57.207C190.294 57.4023 190.32 57.6042 190.359 57.8125C190.398 58.0208 190.457 58.2096 190.535 58.3789C190.626 58.5482 190.743 58.6589 190.887 58.7109L190.262 60.0195C190.092 60.0195 189.91 59.9805 189.715 59.9023C189.533 59.8242 189.35 59.7135 189.168 59.5703C188.999 59.4271 188.849 59.2708 188.719 59.1016C188.602 58.9193 188.51 58.724 188.445 58.5156C188.354 58.737 188.191 58.9453 187.957 59.1406C187.736 59.3229 187.482 59.4922 187.195 59.6484C186.909 59.7917 186.596 59.9023 186.258 59.9805C185.932 60.0586 185.626 60.0977 185.34 60.0977C184.897 60.0977 184.467 60.0391 184.051 59.9219C183.647 59.8047 183.289 59.6159 182.977 59.3555C182.664 59.0951 182.417 58.75 182.234 58.3203C182.065 57.8906 181.98 57.3633 181.98 56.7383C181.98 56.1393 182.104 55.625 182.352 55.1953C182.612 54.7526 182.938 54.3945 183.328 54.1211C183.732 53.8346 184.188 53.6263 184.695 53.4961C185.203 53.3529 185.717 53.2812 186.238 53.2812H187.898C187.898 52.6432 187.866 52.1354 187.801 51.7578C187.736 51.3802 187.625 51.1068 187.469 50.9375C187.312 50.7552 187.117 50.6445 186.883 50.6055C186.661 50.5534 186.395 50.5273 186.082 50.5273C185.796 50.5273 185.522 50.5664 185.262 50.6445C185.014 50.7096 184.78 50.7943 184.559 50.8984C184.35 50.9896 184.161 51.0938 183.992 51.2109C183.836 51.3281 183.719 51.4193 183.641 51.4844L182.762 50.1367C182.892 49.9935 183.087 49.8503 183.348 49.707C183.608 49.5508 183.908 49.4141 184.246 49.2969C184.585 49.1797 184.949 49.0885 185.34 49.0234C185.743 48.9453 186.16 48.9062 186.59 48.9062C186.98 48.9062 187.358 48.9453 187.723 49.0234C188.1 49.1016 188.439 49.2318 188.738 49.4141C189.051 49.5964 189.318 49.8438 189.539 50.1562C189.773 50.4557 189.936 50.8333 190.027 51.2891C190.118 51.7448 190.177 52.207 190.203 52.6758C190.242 53.1315 190.262 53.5872 190.262 54.043V56.582ZM187.918 54.668H186.668C186.408 54.668 186.134 54.694 185.848 54.7461C185.561 54.7982 185.294 54.8958 185.047 55.0391C184.799 55.1823 184.591 55.3906 184.422 55.6641C184.266 55.9245 184.188 56.263 184.188 56.6797C184.188 57.3307 184.331 57.7995 184.617 58.0859C184.917 58.3724 185.346 58.5156 185.906 58.5156C186.297 58.5156 186.668 58.4115 187.02 58.2031C187.384 57.9948 187.684 57.7148 187.918 57.3633V54.668ZM200.184 51.3672C199.819 51.263 199.376 51.2044 198.855 51.1914C198.387 51.1914 197.918 51.25 197.449 51.3672C196.993 51.4714 196.629 51.6536 196.355 51.9141V56.0938V56.1328V60H193.992V48.9844H196.102L196.355 50.1172C196.551 49.9219 196.753 49.7461 196.961 49.5898C197.182 49.4336 197.436 49.3099 197.723 49.2188C198.009 49.1146 198.348 49.0365 198.738 48.9844C199.129 48.9323 199.611 48.9062 200.184 48.9062V51.3672ZM207.312 48.8672C208.198 48.8672 208.979 49.0495 209.656 49.4141C210.333 49.7656 210.887 50.2409 211.316 50.8398C211.759 51.4258 212.072 52.1094 212.254 52.8906C212.449 53.6589 212.488 54.4596 212.371 55.293H204.715C204.715 55.7096 204.793 56.0938 204.949 56.4453C205.105 56.7969 205.314 57.1029 205.574 57.3633C205.848 57.6107 206.167 57.806 206.531 57.9492C206.909 58.0924 207.312 58.1641 207.742 58.1641C207.885 58.1641 208.061 58.151 208.27 58.125C208.491 58.0859 208.719 58.0273 208.953 57.9492C209.201 57.8581 209.441 57.7474 209.676 57.6172C209.923 57.487 210.138 57.3307 210.32 57.1484L211.18 58.457C210.75 58.9909 210.249 59.3945 209.676 59.668C209.103 59.9414 208.374 60.0781 207.488 60.0781C206.772 60.0781 206.102 59.9349 205.477 59.6484C204.852 59.349 204.318 58.9453 203.875 58.4375C203.432 57.9297 203.081 57.3372 202.82 56.6602C202.56 55.9831 202.43 55.2539 202.43 54.4727C202.43 53.7044 202.56 52.9818 202.82 52.3047C203.081 51.6146 203.426 51.0156 203.855 50.5078C204.298 50 204.819 49.6029 205.418 49.3164C206.017 49.0169 206.648 48.8672 207.312 48.8672ZM210.184 53.5742C210.184 53.2227 210.118 52.8776 209.988 52.5391C209.858 52.2005 209.676 51.8945 209.441 51.6211C209.22 51.3477 208.947 51.1328 208.621 50.9766C208.296 50.8073 207.944 50.7161 207.566 50.7031C207.163 50.7031 206.792 50.7812 206.453 50.9375C206.115 51.0938 205.822 51.3021 205.574 51.5625C205.327 51.8229 205.132 52.1354 204.988 52.5C204.858 52.8516 204.793 53.2096 204.793 53.5742H210.184Z" fill="white"/>
<path d="M49.5014 9.78246L52.6927 10.8219C68.2228 15.8805 76.1716 32.382 70.4469 47.6791C64.7222 62.9761 47.4917 71.2761 31.9616 66.2175L28.7703 65.1781C13.2402 60.1195 5.29139 43.618 11.0161 28.3209C16.7409 13.0239 33.9713 4.7239 49.5014 9.78246Z" fill="white" stroke="white"/>
<g clip-path="url(#clip0_1116_659)">
<path d="M13.8229 28.1378L18.4303 27.897L16.338 31.9523L13.8229 28.1378Z" fill="url(#paint0_linear_1116_659)" stroke="#FF7B92" stroke-width="0.2"/>
<path d="M13.413 28.3524L15.9286 32.0217L11.6126 30.8051L12.1179 29.1848L13.413 28.3524Z" fill="url(#paint1_linear_1116_659)" stroke="#FF7B92" stroke-width="0.2"/>
<path d="M16.6517 32.1884L18.7673 28.0218L21.3684 31.9119L16.6517 32.1884Z" fill="url(#paint2_linear_1116_659)" stroke="#FF7B92" stroke-width="0.2"/>
<path d="M19.1472 28.028L21.3452 28.7076L20.954 30.5897L19.1472 28.028Z" fill="url(#paint3_linear_1116_659)" stroke="#FF7B92" stroke-width="0.2"/>
<path d="M16.8762 32.5536L21.4519 32.2997L19.1296 36.1932V35.5377V35.5039L19.1091 35.477L16.8762 32.5536Z" fill="url(#paint4_linear_1116_659)" stroke="#FF7B92" stroke-width="0.2"/>
<path d="M13.6062 32.8106L16.3063 32.3891L18.0534 34.6307L13.6062 32.8106Z" fill="url(#paint5_linear_1116_659)" stroke="#FF7B92" stroke-width="0.2"/>
<path d="M13.0429 32.5105L11.8766 31.2005L15.2299 32.2084L13.0429 32.5105Z" fill="url(#paint6_linear_1116_659)" stroke="#FF7B92" stroke-width="0.2"/>
<path d="M22.6164 20.7221L24.2195 27.0993L14.1217 27.6086L18.8822 20.7221H20.8287H22.6164Z" fill="url(#paint7_linear_1116_659)" stroke="#FF7B92" stroke-width="0.2"/>
<path d="M21.7546 31.802L21.1871 30.9714L21.657 28.9823L22.4479 30.6055L21.7546 31.802Z" fill="url(#paint8_linear_1116_659)" stroke="#FF7B92" stroke-width="0.2"/>
<path d="M21.9041 28.4663L19.4997 27.7937L23.9646 27.522L21.9041 28.4663Z" fill="url(#paint9_linear_1116_659)" stroke="#FF7B92" stroke-width="0.2"/>
<path d="M21.988 28.8511L24.2541 27.7771L22.5979 30.0916L21.988 28.8511Z" fill="url(#paint10_linear_1116_659)" stroke="#FF7B92" stroke-width="0.2"/>
<path d="M24.6747 26.9826L23.0241 20.7221H26.559H30.0073L24.6747 26.9826Z" fill="url(#paint11_linear_1116_659)" stroke="#FF7B92" stroke-width="0.2"/>
<path d="M31.875 20.7025H32.9337L35.6495 27.0537H25.2075L30.4667 20.7025H31.875Z" fill="url(#paint12_linear_1116_659)" stroke="#FF7B92" stroke-width="0.2"/>
<path d="M39.4516 20.7221L36.1068 26.9448L33.3753 20.7221L39.4516 20.7221Z" fill="url(#paint13_linear_1116_659)" stroke="#FF7B92" stroke-width="0.2"/>
<path d="M35.8053 27.4506L30.265 36.9139L24.7247 27.4506H35.8053Z" fill="url(#paint14_linear_1116_659)" stroke="#FF7B92" stroke-width="0.2"/>
<path d="M23.068 30.1029L24.5893 27.9493L25.7977 29.9881L23.068 30.1029Z" fill="url(#paint15_linear_1116_659)" stroke="#FF7B92" stroke-width="0.2"/>
<path d="M26.0163 30.3597L27.6523 33.1207L23.2311 30.4961L26.0163 30.3597Z" fill="url(#paint16_linear_1116_659)" stroke="#FF7B92" stroke-width="0.2"/>
<path d="M19.0348 37.0805L22.8621 30.6971L27.6933 33.5479L19.0348 37.0805Z" fill="url(#paint17_linear_1116_659)" stroke="#FF7B92" stroke-width="0.2"/>
<path d="M18.3779 37.8058L21.1501 36.6724V39.6005L18.3779 37.8058Z" fill="url(#paint18_linear_1116_659)" stroke="#FF7B92" stroke-width="0.2"/>
<path d="M20.5822 46.5447L19.3845 46.3L21.8711 44.252L21.5505 47.5898L20.6364 46.5757L20.6144 46.5513L20.5822 46.5447Z" fill="url(#paint19_linear_1116_659)" stroke="#FF7B92" stroke-width="0.2"/>
<path d="M17.785 38.5316L18.1197 38.0271L20.0773 39.3181L18.19 40.7167L17.7844 40.0812L17.6649 39.3735L17.785 38.5316Z" fill="#EB4764" stroke="#FF7B92" stroke-width="0.2"/>
<path d="M18.6994 43.9591L19.038 43.4531L20.9244 44.6181L19.0923 46.1402L18.6927 45.5087L18.5761 44.8005L18.6994 43.9591Z" fill="#EB4764" stroke="#FF7B92" stroke-width="0.2"/>
<path d="M18.3613 40.9539L20.2976 39.5218L20.7743 41.6959L19.8997 41.8109L19.0037 41.6216L18.5721 41.3175L18.3613 40.9539Z" fill="#EB4764" stroke="#FF7B92" stroke-width="0.2"/>
<path d="M20.9007 42.0121H21.3822L21.1046 44.3145L19.1811 43.1507L19.6985 42.4519L20.3282 42.0748L20.9007 42.0121Z" fill="#EB4764" stroke="#FF7B92" stroke-width="0.2"/>
<path d="M21.4618 39.4021V36.5239L23.4076 35.6773L21.4618 39.4021Z" fill="url(#paint20_linear_1116_659)" stroke="#FF7B92" stroke-width="0.2"/>
<path d="M21.0788 41.6663L20.5475 39.5983L21.888 40.4261L23.0783 41.722L21.0788 41.6663Z" fill="#EB4764" stroke="#FF7B92" stroke-width="0.2"/>
<path d="M21.6516 42.0145L23.7978 42.0718L22.6934 43.2181L21.9653 43.8056L21.9653 43.8056L21.4195 44.246L21.6516 42.0145Z" fill="#EB4764" stroke="#FF7B92" stroke-width="0.2"/>
<path d="M21.5998 39.7668L23.8393 35.5952L26.6596 39.5421L21.5998 39.7668Z" fill="url(#paint21_linear_1116_659)" stroke="#FF7B92" stroke-width="0.2"/>
<path d="M24.0848 35.4965L28.737 35.2518L26.9819 39.4141L24.0848 35.4965Z" fill="url(#paint22_linear_1116_659)" stroke="#FF7B92" stroke-width="0.2"/>
<path d="M24.481 35.2103L28.0471 33.7589L28.7263 34.987L24.481 35.2103Z" fill="url(#paint23_linear_1116_659)" stroke="#FF7B92" stroke-width="0.2"/>
<path d="M22.0622 40.224L22.0523 40.2132L22.0397 40.2057L21.8047 40.0654L25.2474 40.0077L28.011 41.7289H23.4411L22.0622 40.224Z" fill="url(#paint24_linear_1116_659)" stroke="#FF7B92" stroke-width="0.2"/>
<path d="M22.8904 43.4357L22.8909 43.4363L22.8997 43.4272L23.922 42.363L23.8555 45.7779L21.8832 47.6395L22.1907 44.0003L22.8904 43.4357Z" fill="url(#paint25_linear_1116_659)" stroke="#FF7B92" stroke-width="0.2"/>
<path d="M29.8691 38.8982L27.2877 39.5034L28.9857 35.4075L30.1169 37.2078L29.9898 38.1677L29.8691 38.8982Z" fill="url(#paint26_linear_1116_659)" stroke="#FF7B92" stroke-width="0.2"/>
<path d="M25.7252 39.9164L27.0311 39.8438L27.0396 39.8434L27.0479 39.8415L29.7369 39.2248L29.0078 41.3219L28.4903 41.6621L25.7252 39.9164Z" fill="url(#paint27_linear_1116_659)" stroke="#FF7B92" stroke-width="0.2"/>
<path d="M24.1965 45.555L24.2572 42.1447L27.387 43.8577L24.1965 45.555Z" fill="url(#paint28_linear_1116_659)" stroke="#FF7B92" stroke-width="0.2"/>
<path d="M27.575 43.6112L24.6335 42.0186L28.2094 42.0755L27.575 43.6112Z" fill="url(#paint29_linear_1116_659)" stroke="#FF7B92" stroke-width="0.2"/>
<path d="M21.6615 52.0114L25.2659 54.194L25.7057 57.9737L23.6885 57.0094L22.315 55.4613L21.6615 53.7214V52.0114Z" fill="url(#paint30_linear_1116_659)" stroke="#FF7B92" stroke-width="0.2"/>
<path d="M22.1892 50.2902L22.1892 50.2902L22.1895 50.2894L22.456 49.5009L22.4628 49.4808L22.4609 49.4597L22.417 48.9837L22.7389 49.2615L23.668 52.8043L21.7236 51.6307L22.1892 50.2902Z" fill="url(#paint31_linear_1116_659)" stroke="#FF7B92" stroke-width="0.2"/>
<path d="M22.6288 47.3743L22.6288 47.3743L22.6313 47.3719L23.4895 46.5256L22.7787 48.9519L22.3701 48.5489L21.9544 47.9951L22.6288 47.3743Z" fill="url(#paint32_linear_1116_659)" stroke="#FF7B92" stroke-width="0.2"/>
<path d="M25.6109 54.3465L29.5116 55.6863L28.0985 58.3055H26.9717L26.0506 58.0633L25.6109 54.3465Z" fill="url(#paint33_linear_1116_659)" stroke="#FF7B92" stroke-width="0.2"/>
<path d="M30.6526 37.0772L36.1551 27.6149L41.6577 37.0772H30.6526Z" fill="url(#paint34_linear_1116_659)" stroke="#FF7B92" stroke-width="0.2"/>
<path d="M30.4432 37.3461H33.7599L31.8247 39.0756L29.4484 41.0089L30.1842 39.0555L30.1879 39.0456L30.1895 39.0351L30.4432 37.3461Z" fill="url(#paint35_linear_1116_659)" stroke="#FF7B92" stroke-width="0.2"/>
<path d="M30.6467 51.907L29.6233 55.3263L25.5756 53.9489L27.5877 49.6439L27.596 49.626L27.597 49.6063L27.8398 44.4973L30.6467 51.907Z" fill="url(#paint36_linear_1116_659)" stroke="#FF7B92" stroke-width="0.2"/>
<path d="M27.5166 44.1851L27.2597 49.3788L25.2511 53.7879L24.1139 53.0206L23.0649 49.1413L23.9777 46.0547L27.5166 44.1851Z" fill="url(#paint37_linear_1116_659)" stroke="#FF7B92" stroke-width="0.2"/>
<path d="M36.4553 27.4846L47.5319 27.4203L42.05 36.9123L36.4553 27.4846Z" fill="url(#paint38_linear_1116_659)" stroke="#FF7B92" stroke-width="0.2"/>
<path d="M43.4289 20.7221L47.4395 26.9973L36.4539 27.0916L39.8126 20.7221L41.5513 20.7221L43.4289 20.7221Z" fill="url(#paint39_linear_1116_659)" stroke="#FF7B92" stroke-width="0.2"/>
<path d="M29.5075 41.3763L28.8634 43.455L28.2914 44.8653L27.8661 43.8168L28.5733 42.0416L29.5075 41.3763Z" fill="url(#paint40_linear_1116_659)" stroke="#FF7B92" stroke-width="0.2"/>
<path d="M29.183 43.5283L29.1836 43.5286L29.1869 43.5177L29.8775 41.227L36.3457 46.3265L30.9291 51.6555L28.466 45.1996L29.183 43.5283Z" fill="url(#paint41_linear_1116_659)" stroke="#FF7B92" stroke-width="0.2"/>
<path d="M34.259 37.3471H38.3634L36.5554 46.071L30.064 40.9702L34.259 37.3471Z" fill="url(#paint42_linear_1116_659)" stroke="#FF7B92" stroke-width="0.2"/>
<path d="M36.8848 46.1094L38.7007 37.3471H41.9296L42.8403 44.4675L36.8848 46.1094Z" fill="url(#paint43_linear_1116_659)" stroke="#FF7B92" stroke-width="0.2"/>
<path d="M31.0449 52.0197L36.5973 46.6085L39.6939 52.083L30.043 55.2925L31.0449 52.0197Z" fill="url(#paint44_linear_1116_659)" stroke="#FF7B92" stroke-width="0.2"/>
<path d="M28.6565 58.0586L29.9518 55.6918L39.0497 52.6166L34.2417 55.521L28.6565 58.0586Z" fill="url(#paint45_linear_1116_659)" stroke="#FF7B92" stroke-width="0.2"/>
<path d="M44.1662 49.5514L40.0556 51.895L36.931 46.4896L42.8805 44.8602L44.1662 49.5514Z" fill="url(#paint46_linear_1116_659)" stroke="#FF7B92" stroke-width="0.2"/>
<path d="M43.2486 44.5852L42.333 37.362L56.2131 39.1699L55.1188 42.7248L53.1409 46.0407L50.0427 47.6009L44.6172 49.2769L43.2486 44.5852Z" fill="url(#paint47_linear_1116_659)" stroke="#FF7B92" stroke-width="0.2"/>
<path d="M57.1176 35.9356L57.1175 35.9356L57.1167 35.9386L56.3419 38.7484L42.5178 36.9703L48.0098 27.549L53.4366 30.3946L57.8281 33.636L57.1176 35.9356Z" fill="url(#paint48_linear_1116_659)" stroke="#FF7B92" stroke-width="0.2"/>
<path d="M51.9486 20.7221L57.7518 33.1854L53.4712 30.004L53.4648 29.9993L53.4578 29.9956L48.0508 27.1759L43.8673 20.7221H51.9486Z" fill="url(#paint49_linear_1116_659)" stroke="#FF7B92" stroke-width="0.2"/>
<path d="M60.6414 20.7221V26.9761L58.0711 33.1864L52.3022 20.7221H60.6414Z" fill="url(#paint50_linear_1116_659)" stroke="#FF7B92" stroke-width="0.2"/>
<path d="M41.3138 55.7854L30.1609 57.7417L34.5728 55.8439L34.5799 55.8409L34.5866 55.8367L40.1171 52.3523L44.5047 49.7286L50.0917 47.9567L50.0989 47.9544L50.1057 47.9511L53.1824 46.4332L54.5546 55.3496L46.9476 57.3535L44.6526 55.801L44.6332 55.7879L44.61 55.7848L43.1438 55.5875L43.1317 55.5858L43.1196 55.5872L41.3201 55.7845L41.3201 55.7843L41.3138 55.7854Z" fill="url(#paint51_linear_1116_659)" stroke="#FF7B92" stroke-width="0.2"/>
<path d="M63.3174 48.942L54.9492 55.1018L54.6393 53.0339L54.6392 53.0328L53.5321 46.1783L55.5608 43.0598L55.5684 43.0482L55.5725 43.0349L56.7763 39.1619L56.7765 39.162L56.7777 39.1569L58.1004 33.9649L63.3174 48.942Z" fill="url(#paint52_linear_1116_659)" stroke="#FF7B92" stroke-width="0.2"/>
<path d="M61.1004 27.3225V20.7904H65.2523L63.4951 26.9668L63.4929 26.9747L63.4919 26.983L62.9602 31.7107L62.9589 31.7222L62.9602 31.7337L63.492 36.1988L63.4933 36.2097L63.4969 36.2201L65.2904 41.3418L65.2952 41.3557L65.3039 41.3675L67.1641 43.9284L67.1726 43.9401L67.1841 43.9489L69.4534 45.6937L63.6481 48.8468L61.0952 41.2768L61.0952 41.2768L61.0944 41.2746L58.3179 33.6298L61.0918 27.3629L61.1004 27.3436V27.3225Z" fill="url(#paint53_linear_1116_659)" stroke="#FF7B92" stroke-width="0.2"/>
<path d="M48.5555 17.0215L50.206 21.4207L54.6669 23.0485L50.206 24.6764L48.5555 29.0756L46.9048 24.6764L42.4438 23.0485L46.9048 21.4207L48.5555 17.0215Z" fill="white"/>
</g>
<defs>
<linearGradient id="paint0_linear_1116_659" x1="18.599" y1="27.7881" x2="13.8349" y2="30.9293" gradientUnits="userSpaceOnUse">
<stop stop-color="#FFD9DF" stop-opacity="0.58"/>
<stop offset="1" stop-color="#FF7B92"/>
</linearGradient>
<linearGradient id="paint1_linear_1116_659" x1="16.1672" y1="32.1928" x2="12.0174" y2="29.1418" gradientUnits="userSpaceOnUse">
<stop stop-color="#FFD9DF" stop-opacity="0.58"/>
<stop offset="1" stop-color="#FF7B92"/>
</linearGradient>
<linearGradient id="paint2_linear_1116_659" x1="18.7555" y1="27.8242" x2="19.0935" y2="33.5924" gradientUnits="userSpaceOnUse">
<stop stop-color="#FFD9DF" stop-opacity="0.58"/>
<stop offset="1" stop-color="#FF7B92"/>
</linearGradient>
<linearGradient id="paint3_linear_1116_659" x1="21.3025" y1="28.4134" x2="19.963" y2="29.3581" gradientUnits="userSpaceOnUse">
<stop stop-color="#FFD9DF" stop-opacity="0.58"/>
<stop offset="1" stop-color="#FF7B92"/>
</linearGradient>
<linearGradient id="paint4_linear_1116_659" x1="16.6446" y1="32.5375" x2="20.4574" y2="34.4888" gradientUnits="userSpaceOnUse">
<stop stop-color="#FFD9DF" stop-opacity="0.58"/>
<stop offset="1" stop-color="#FF7B92"/>
</linearGradient>
<linearGradient id="paint5_linear_1116_659" x1="16.4595" y1="32.3289" x2="15.7943" y2="33.8708" gradientUnits="userSpaceOnUse">
<stop stop-color="#FFD9DF" stop-opacity="0.58"/>
<stop offset="1" stop-color="#FF7B92"/>
</linearGradient>
<linearGradient id="paint6_linear_1116_659" x1="13.4159" y1="30.6163" x2="13.8377" y2="32.6338" gradientUnits="userSpaceOnUse">
<stop stop-color="#FFD9DF" stop-opacity="0.58"/>
<stop offset="1" stop-color="#FF7B92"/>
</linearGradient>
<linearGradient id="paint7_linear_1116_659" x1="14.1666" y1="28.133" x2="23.7924" y2="22.4975" gradientUnits="userSpaceOnUse">
<stop stop-color="#FFD9DF" stop-opacity="0.58"/>
<stop offset="1" stop-color="#FF7B92"/>
</linearGradient>
<linearGradient id="paint8_linear_1116_659" x1="20.9941" y1="30.4442" x2="22.4985" y2="30.2091" gradientUnits="userSpaceOnUse">
<stop stop-color="#FFD9DF" stop-opacity="0.58"/>
<stop offset="1" stop-color="#FF7B92"/>
</linearGradient>
<linearGradient id="paint9_linear_1116_659" x1="21.7147" y1="28.5757" x2="21.6955" y2="27.4368" gradientUnits="userSpaceOnUse">
<stop stop-color="#FFD9DF" stop-opacity="0.58"/>
<stop offset="1" stop-color="#FF7B92"/>
</linearGradient>
<linearGradient id="paint10_linear_1116_659" x1="24.3281" y1="27.3087" x2="22.0467" y2="29.7945" gradientUnits="userSpaceOnUse">
<stop stop-color="#FFD9DF" stop-opacity="0.58"/>
<stop offset="1" stop-color="#FF7B92"/>
</linearGradient>
<linearGradient id="paint11_linear_1116_659" x1="22.5844" y1="21.1514" x2="28.043" y2="24.3471" gradientUnits="userSpaceOnUse">
<stop stop-color="#FFD9DF" stop-opacity="0.58"/>
<stop offset="1" stop-color="#FF7B92"/>
</linearGradient>
<linearGradient id="paint12_linear_1116_659" x1="30.3979" y1="20.6025" x2="30.3979" y2="27.1537" gradientUnits="userSpaceOnUse">
<stop stop-color="#FFD9DF" stop-opacity="0.58"/>
<stop offset="1" stop-color="#FF7B92"/>
</linearGradient>
<linearGradient id="paint13_linear_1116_659" x1="35.5831" y1="27.1083" x2="36.4475" y2="20.2239" gradientUnits="userSpaceOnUse">
<stop stop-color="#FFD9DF" stop-opacity="0.58"/>
<stop offset="1" stop-color="#FF7B92"/>
</linearGradient>
<linearGradient id="paint14_linear_1116_659" x1="30.265" y1="37.1118" x2="30.265" y2="24.0969" gradientUnits="userSpaceOnUse">
<stop stop-color="#FFD9DF" stop-opacity="0.58"/>
<stop offset="1" stop-color="#FF7B92"/>
</linearGradient>
<linearGradient id="paint15_linear_1116_659" x1="24.419" y1="27.7656" x2="24.419" y2="30.2114" gradientUnits="userSpaceOnUse">
<stop stop-color="#FFD9DF" stop-opacity="0.58"/>
<stop offset="1" stop-color="#FF7B92"/>
</linearGradient>
<linearGradient id="paint16_linear_1116_659" x1="28.3961" y1="32.608" x2="23.3091" y2="29.6894" gradientUnits="userSpaceOnUse">
<stop stop-color="#FFD9DF" stop-opacity="0.58"/>
<stop offset="1" stop-color="#FF7B92"/>
</linearGradient>
<linearGradient id="paint17_linear_1116_659" x1="23.3562" y1="30.5605" x2="23.3562" y2="37.2864" gradientUnits="userSpaceOnUse">
<stop stop-color="#FFD9DF" stop-opacity="0.58"/>
<stop offset="1" stop-color="#FF7B92"/>
</linearGradient>
<linearGradient id="paint18_linear_1116_659" x1="21.2235" y1="36.5062" x2="19.7359" y2="38.8041" gradientUnits="userSpaceOnUse">
<stop stop-color="#FFD9DF" stop-opacity="0.58"/>
<stop offset="1" stop-color="#FF7B92"/>
</linearGradient>
<linearGradient id="paint19_linear_1116_659" x1="22.3241" y1="47.2524" x2="20.6051" y2="45.1652" gradientUnits="userSpaceOnUse">
<stop stop-color="#FFD9DF" stop-opacity="0.58"/>
<stop offset="1" stop-color="#FF7B92"/>
</linearGradient>
<linearGradient id="paint20_linear_1116_659" x1="21.7068" y1="36.2661" x2="23.1316" y2="38.8234" gradientUnits="userSpaceOnUse">
<stop stop-color="#FFD9DF" stop-opacity="0.58"/>
<stop offset="1" stop-color="#FF7B92"/>
</linearGradient>
<linearGradient id="paint21_linear_1116_659" x1="23.8662" y1="35.4039" x2="24.1335" y2="39.799" gradientUnits="userSpaceOnUse">
<stop stop-color="#FFD9DF" stop-opacity="0.58"/>
<stop offset="1" stop-color="#FF7B92"/>
</linearGradient>
<linearGradient id="paint22_linear_1116_659" x1="28.8492" y1="35.0862" x2="25.474" y2="37.5613" gradientUnits="userSpaceOnUse">
<stop stop-color="#FFD9DF" stop-opacity="0.58"/>
<stop offset="1" stop-color="#FF7B92"/>
</linearGradient>
<linearGradient id="paint23_linear_1116_659" x1="28.9204" y1="34.7174" x2="23.9767" y2="34.3174" gradientUnits="userSpaceOnUse">
<stop stop-color="#FFD9DF" stop-opacity="0.58"/>
<stop offset="1" stop-color="#FF7B92"/>
</linearGradient>
<linearGradient id="paint24_linear_1116_659" x1="24.9063" y1="39.9072" x2="24.9063" y2="41.8289" gradientUnits="userSpaceOnUse">
<stop stop-color="#FFD9DF" stop-opacity="0.58"/>
<stop offset="1" stop-color="#FF7B92"/>
</linearGradient>
<linearGradient id="paint25_linear_1116_659" x1="23.9959" y1="45.0586" x2="21.9209" y2="44.9463" gradientUnits="userSpaceOnUse">
<stop stop-color="#FFD9DF" stop-opacity="0.58"/>
<stop offset="1" stop-color="#FF7B92"/>
</linearGradient>
<linearGradient id="paint26_linear_1116_659" x1="28.6707" y1="35.1904" x2="28.6707" y2="39.6452" gradientUnits="userSpaceOnUse">
<stop stop-color="#FFD9DF" stop-opacity="0.58"/>
<stop offset="1" stop-color="#FF7B92"/>
</linearGradient>
<linearGradient id="paint27_linear_1116_659" x1="25.4207" y1="39.7606" x2="29.6252" y2="40.5327" gradientUnits="userSpaceOnUse">
<stop stop-color="#FFD9DF" stop-opacity="0.58"/>
<stop offset="1" stop-color="#FF7B92"/>
</linearGradient>
<linearGradient id="paint28_linear_1116_659" x1="24.1994" y1="41.9554" x2="25.8357" y2="44.8537" gradientUnits="userSpaceOnUse">
<stop stop-color="#FFD9DF" stop-opacity="0.58"/>
<stop offset="1" stop-color="#FF7B92"/>
</linearGradient>
<linearGradient id="paint29_linear_1116_659" x1="24.2366" y1="41.8759" x2="28.102" y2="42.9228" gradientUnits="userSpaceOnUse">
<stop stop-color="#FFD9DF" stop-opacity="0.58"/>
<stop offset="1" stop-color="#FF7B92"/>
</linearGradient>
<linearGradient id="paint30_linear_1116_659" x1="26.8351" y1="53.0581" x2="22.4333" y2="55.8389" gradientUnits="userSpaceOnUse">
<stop stop-color="#FFD9DF" stop-opacity="0.58"/>
<stop offset="1" stop-color="#FF7B92"/>
</linearGradient>
<linearGradient id="paint31_linear_1116_659" x1="24.5795" y1="51.8263" x2="21.5556" y2="49.9163" gradientUnits="userSpaceOnUse">
<stop stop-color="#FFD9DF" stop-opacity="0.58"/>
<stop offset="1" stop-color="#FF7B92"/>
</linearGradient>
<linearGradient id="paint32_linear_1116_659" x1="24.231" y1="47.1219" x2="22.044" y2="48.3738" gradientUnits="userSpaceOnUse">
<stop stop-color="#FFD9DF" stop-opacity="0.58"/>
<stop offset="1" stop-color="#FF7B92"/>
</linearGradient>
<linearGradient id="paint33_linear_1116_659" x1="29.6961" y1="55.966" x2="25.754" y2="56.4417" gradientUnits="userSpaceOnUse">
<stop stop-color="#FFD9DF" stop-opacity="0.58"/>
<stop offset="1" stop-color="#FF7B92"/>
</linearGradient>
<linearGradient id="paint34_linear_1116_659" x1="36.1551" y1="27.416" x2="36.1551" y2="40.431" gradientUnits="userSpaceOnUse">
<stop stop-color="#FFD9DF" stop-opacity="0.58"/>
<stop offset="1" stop-color="#FF7B92"/>
</linearGradient>
<linearGradient id="paint35_linear_1116_659" x1="33.6998" y1="39.5638" x2="29.5486" y2="38.9869" gradientUnits="userSpaceOnUse">
<stop stop-color="#FFD9DF" stop-opacity="0.58"/>
<stop offset="1" stop-color="#FF7B92"/>
</linearGradient>
<linearGradient id="paint36_linear_1116_659" x1="28.095" y1="44.0117" x2="28.095" y2="55.4544" gradientUnits="userSpaceOnUse">
<stop stop-color="#FFD9DF" stop-opacity="0.58"/>
<stop offset="1" stop-color="#FF7B92"/>
</linearGradient>
<linearGradient id="paint37_linear_1116_659" x1="27.7896" y1="48.9325" x2="22.9594" y2="49.094" gradientUnits="userSpaceOnUse">
<stop stop-color="#FFD9DF" stop-opacity="0.58"/>
<stop offset="1" stop-color="#FF7B92"/>
</linearGradient>
<linearGradient id="paint38_linear_1116_659" x1="47.7057" y1="27.3193" x2="36.4006" y2="34.0282" gradientUnits="userSpaceOnUse">
<stop stop-color="#FFD9DF" stop-opacity="0.58"/>
<stop offset="1" stop-color="#FF7B92"/>
</linearGradient>
<linearGradient id="paint39_linear_1116_659" x1="47.1368" y1="27.9422" x2="38.4181" y2="22.954" gradientUnits="userSpaceOnUse">
<stop stop-color="#FFD9DF" stop-opacity="0.58"/>
<stop offset="1" stop-color="#FF7B92"/>
</linearGradient>
<linearGradient id="paint40_linear_1116_659" x1="29.2361" y1="43.2467" x2="28.1323" y2="42.6934" gradientUnits="userSpaceOnUse">
<stop stop-color="#FFD9DF" stop-opacity="0.58"/>
<stop offset="1" stop-color="#FF7B92"/>
</linearGradient>
<linearGradient id="paint41_linear_1116_659" x1="35.7159" y1="44.3638" x2="28.9808" y2="47.0545" gradientUnits="userSpaceOnUse">
<stop stop-color="#FFD9DF" stop-opacity="0.58"/>
<stop offset="1" stop-color="#FF7B92"/>
</linearGradient>
<linearGradient id="paint42_linear_1116_659" x1="38.4189" y1="37.1944" x2="33.3443" y2="43.6897" gradientUnits="userSpaceOnUse">
<stop stop-color="#FFD9DF" stop-opacity="0.58"/>
<stop offset="1" stop-color="#FF7B92"/>
</linearGradient>
<linearGradient id="paint43_linear_1116_659" x1="37.7655" y1="37.569" x2="40.7121" y2="45.3847" gradientUnits="userSpaceOnUse">
<stop stop-color="#FFD9DF" stop-opacity="0.58"/>
<stop offset="1" stop-color="#FF7B92"/>
</linearGradient>
<linearGradient id="paint44_linear_1116_659" x1="32.7497" y1="47.7682" x2="34.8272" y2="53.8517" gradientUnits="userSpaceOnUse">
<stop stop-color="#FFD9DF" stop-opacity="0.58"/>
<stop offset="1" stop-color="#FF7B92"/>
</linearGradient>
<linearGradient id="paint45_linear_1116_659" x1="33.3086" y1="53.7414" x2="34.3184" y2="55.5934" gradientUnits="userSpaceOnUse">
<stop stop-color="#FFD9DF" stop-opacity="0.58"/>
<stop offset="1" stop-color="#FF7B92"/>
</linearGradient>
<linearGradient id="paint46_linear_1116_659" x1="36.6515" y1="46.8098" x2="44.3536" y2="49.3897" gradientUnits="userSpaceOnUse">
<stop stop-color="#FFD9DF" stop-opacity="0.58"/>
<stop offset="1" stop-color="#FF7B92"/>
</linearGradient>
<linearGradient id="paint47_linear_1116_659" x1="41.8416" y1="37.7289" x2="52.9868" y2="46.406" gradientUnits="userSpaceOnUse">
<stop stop-color="#FFD9DF" stop-opacity="0.58"/>
<stop offset="1" stop-color="#FF7B92"/>
</linearGradient>
<linearGradient id="paint48_linear_1116_659" x1="50.1499" y1="27.416" x2="50.1499" y2="38.8587" gradientUnits="userSpaceOnUse">
<stop stop-color="#FFD9DF" stop-opacity="0.58"/>
<stop offset="1" stop-color="#FF7B92"/>
</linearGradient>
<linearGradient id="paint49_linear_1116_659" x1="48.4561" y1="28.4745" x2="54.5383" y2="24.7778" gradientUnits="userSpaceOnUse">
<stop stop-color="#FFD9DF" stop-opacity="0.58"/>
<stop offset="1" stop-color="#FF7B92"/>
</linearGradient>
<linearGradient id="paint50_linear_1116_659" x1="62.1699" y1="23.151" x2="54.6623" y2="27.3919" gradientUnits="userSpaceOnUse">
<stop stop-color="#FFD9DF" stop-opacity="0.58"/>
<stop offset="1" stop-color="#FF7B92"/>
</linearGradient>
<linearGradient id="paint51_linear_1116_659" x1="42.0011" y1="46.2832" x2="42.0011" y2="57.9881" gradientUnits="userSpaceOnUse">
<stop stop-color="#FFD9DF" stop-opacity="0.58"/>
<stop offset="1" stop-color="#FF7B92"/>
</linearGradient>
<linearGradient id="paint52_linear_1116_659" x1="58.4317" y1="33.6182" x2="58.4317" y2="55.2806" gradientUnits="userSpaceOnUse">
<stop stop-color="#FFD9DF" stop-opacity="0.58"/>
<stop offset="1" stop-color="#FF7B92"/>
</linearGradient>
<linearGradient id="paint53_linear_1116_659" x1="63.9234" y1="20.6904" x2="63.9234" y2="48.9914" gradientUnits="userSpaceOnUse">
<stop stop-color="#FFD9DF" stop-opacity="0.58"/>
<stop offset="1" stop-color="#FF7B92"/>
</linearGradient>
<clipPath id="clip0_1116_659">
<rect width="59" height="42" fill="white" transform="translate(11 17)"/>
</clipPath>
</defs>
</svg>
