<svg width="1925" height="1454" viewBox="0 0 1925 1454" fill="none" xmlns="http://www.w3.org/2000/svg">
<path d="M1924.39 1373.93C1924.39 1479.93 1918.08 1442.89 1685.39 1453.93L36.499 1453.93C-32.501 1431.54 -5.29439 1085.04 131.999 995.933L1622.73 39.4593C1786.84 -63.9646 1916.44 47.4209 1924.39 239.933L1924.39 1373.93Z" fill="#FFC0CB"/>
<path d="M1924.39 1373.93C1922.77 1479.99 1917.07 1442.93 1685.39 1453.93L24.499 1453.93C-12.3365 1405.04 -10.1297 1092.26 126.756 1011.6L1611.99 84.4388C1776.98 -17.6207 1918.07 47.3617 1924.39 239.933L1924.39 1373.93Z" fill="#F86A83"/>
<path d="M1924.39 1373.93C1922.8 1480.49 1916.56 1442.96 1685.39 1453.93L24.499 1453.93C-21.001 1393.54 -5.03317 1112.57 126.756 1025.97L1625.54 146.694C1792.73 48.2242 1922.31 47.2709 1924.39 239.933L1924.39 1373.93Z" fill="#FF7B92"/>
<path fill-rule="evenodd" clip-rule="evenodd" d="M1565.17 952.478C1570.17 939.346 1567.67 924.963 1568.29 920.586C1568.92 916.208 1568.92 899.324 1597.67 899.95C1620.67 900.45 1635.59 916.834 1640.17 924.963C1647.26 934.76 1665.67 955.98 1682.67 962.483C1703.93 970.612 1708.3 973.739 1714.55 991.249C1719.55 1005.26 1711.22 1024.6 1706.43 1032.52C1703.93 1046.07 1699.18 1077.67 1700.18 1095.68C1701.43 1118.19 1713.93 1183.85 1717.68 1197.61C1721.43 1211.37 1720.8 1235.13 1697.05 1260.77C1673.3 1286.41 1654.55 1297.66 1644.55 1302.04C1634.55 1306.42 1592.04 1325.8 1550.79 1328.3C1509.54 1330.81 1511.25 1325.56 1502.04 1317.67C1499.66 1315.64 1487.04 1303.92 1487.04 1277.65C1482.66 1271.82 1466.61 1261.61 1460 1259.27C1449.37 1255.52 1416.87 1245.51 1402.66 1238.26C1390.82 1232.21 1375.78 1218.87 1373.28 1213.87C1370.78 1208.86 1365.78 1206.99 1367.65 1153.21C1369.15 1110.19 1351.86 1106.06 1337.49 1098.56L1322.49 1092.31L1315.61 1087.3L1311.86 1080.42L1311.24 1072.29L1313.74 1063.54L1322.49 1056.04L1333.28 1051.28C1347.24 1044.82 1378.78 1032.02 1393.28 1032.52C1411.41 1033.15 1412.66 1016.89 1412.03 1014.39C1411.41 1011.88 1398.28 989.998 1398.28 981.869C1398.28 973.739 1395.78 976.241 1398.28 954.354C1400.78 932.467 1420.16 929.34 1431.41 932.467C1442.66 935.594 1484.54 958.731 1485.79 959.982C1487.04 961.233 1509.02 972.092 1514.54 973.739C1520 975.368 1540 978.495 1549.54 971.61C1554.35 967.358 1561.38 962.434 1565.17 952.478ZM1482.5 1202.25C1482.17 1197.68 1481.29 1192.28 1479.37 1187.36C1475.87 1178.35 1466.66 1168.18 1462.5 1164.22C1461.46 1162.97 1460 1159.84 1462.5 1157.34C1465.62 1154.21 1478.12 1149.84 1479.37 1146.71C1480.62 1143.58 1478.75 1128.57 1482.5 1113.57C1486.25 1098.56 1488.75 1082.93 1495 1081.05C1501.25 1079.17 1529.38 1077.3 1536.25 1077.3C1543.13 1077.3 1556.25 1076.05 1564.38 1056.04C1570.88 1040.03 1571.67 1035.19 1571.25 1034.77L1591.26 1053.53L1616.26 1084.18L1622.51 1102.94L1624.38 1135.45C1632.09 1138.79 1649.76 1149.59 1658.76 1166.09C1664.22 1176.11 1663.36 1184.02 1660.68 1189.44C1663.86 1184.41 1665.29 1178.16 1665.63 1174.22L1671.89 1224.25C1665.29 1244.03 1661.6 1255.12 1655.01 1274.9L1611.26 1303.04L1543.75 1310.55L1524.38 1296.16C1524.56 1294.45 1524.78 1292.45 1525.05 1290.26C1524.83 1290.13 1527.3 1276.1 1527.08 1275.96C1526.93 1275.87 1524.87 1290.02 1524.72 1289.93C1499.43 1273.85 1481.87 1245.2 1481.87 1213C1481.87 1209.36 1482.09 1205.77 1482.5 1202.25Z" fill="#EB4764"/>
<path d="M1660.26 1190.25C1662.14 1197.52 1663.13 1205.14 1663.13 1213C1663.13 1263.07 1622.56 1303.67 1572.5 1303.67C1555.11 1303.67 1538.85 1298.76 1525.05 1290.26C1524.78 1292.45 1524.56 1294.45 1524.38 1296.16L1543.75 1310.55L1611.26 1303.04L1655.01 1274.9C1661.6 1255.12 1665.29 1244.03 1671.89 1224.25L1665.63 1174.22C1665.29 1178.16 1663.86 1184.41 1660.68 1189.44C1660.54 1189.71 1660.4 1189.98 1660.26 1190.25Z" fill="#EB4764"/>
<path d="M1654.38 1196.74C1648.09 1200.03 1636.61 1202.16 1627.59 1193.8C1627.35 1193.58 1627.11 1193.35 1626.88 1193.11C1624.7 1190.92 1622.68 1188.08 1620.94 1184.46C1620.39 1183.72 1619.83 1182.98 1619.27 1182.24L1618.89 1181.75C1608.27 1182.38 1582.88 1187.48 1566.88 1202.99C1546.88 1222.38 1538.13 1243.01 1533.13 1251.77C1529.7 1257.76 1526.65 1277.3 1525.05 1290.26C1538.85 1298.76 1555.11 1303.67 1572.5 1303.67C1622.56 1303.67 1663.13 1263.07 1663.13 1213C1663.13 1205.14 1662.14 1197.52 1660.26 1190.25C1658.55 1193.34 1656.27 1195.53 1654.38 1196.74Z" fill="#EB4764"/>
<path d="M1563.01 1173C1558.26 1174.66 1553.39 1176.52 1548.47 1178.52C1537.88 1198.91 1529.84 1234.22 1524.72 1289.93C1524.87 1290.02 1526.93 1275.87 1527.08 1275.96C1537.43 1211.32 1548.53 1189.79 1563.01 1173Z" fill="#EB4764"/>
<path d="M1548.47 1178.52C1553.39 1176.52 1558.26 1174.66 1563.01 1173C1575.88 1158.07 1589.29 1157.85 1601.3 1164.89C1601.92 1164.91 1602.52 1164.95 1603.11 1165C1585.27 1150.18 1564.76 1147.16 1548.47 1178.52Z" fill="#EB4764"/>
<path d="M1619.27 1182.24L1620.46 1183.43C1620.34 1183.16 1620.21 1182.88 1620.09 1182.6C1616.92 1178.42 1613.49 1174.56 1609.85 1171.27C1613.14 1174.65 1616.3 1178.36 1619.27 1182.24Z" fill="#EB4764"/>
<path d="M1603.11 1165C1602.52 1164.95 1601.92 1164.91 1601.3 1164.89C1604.25 1166.62 1607.11 1168.78 1609.85 1171.27C1607.66 1169.02 1605.4 1166.91 1603.11 1165Z" fill="#EB4764"/>
<path d="M1649.38 1197.36C1635.01 1199.24 1630.01 1192.98 1629.38 1192.36L1621.46 1184.43C1623.64 1187.44 1625.7 1190.6 1627.59 1193.8C1636.61 1202.16 1648.09 1200.03 1654.38 1196.74C1656.27 1195.53 1658.55 1193.34 1660.26 1190.25C1660.25 1190.21 1660.24 1190.17 1660.23 1190.13C1657.71 1193.82 1654.19 1196.73 1649.38 1197.36Z" fill="#EB4764"/>
<path d="M1626.88 1193.11C1624.7 1190.92 1622.68 1188.08 1620.94 1184.46C1623.02 1187.29 1625.01 1190.2 1626.88 1193.11Z" fill="#EB4764"/>
<path d="M1626.88 1193.11C1627.11 1193.35 1627.35 1193.58 1627.59 1193.8C1625.7 1190.6 1623.64 1187.44 1621.46 1184.43L1620.46 1183.43C1620.62 1183.78 1620.78 1184.12 1620.94 1184.46C1623.02 1187.29 1625.01 1190.2 1626.88 1193.11Z" fill="#EB4764"/>
<path d="M1620.09 1182.6C1620.21 1182.88 1620.34 1183.16 1620.46 1183.43L1621.46 1184.43C1621.01 1183.81 1620.55 1183.2 1620.09 1182.6Z" fill="#FF7B92"/>
<path d="M1619.27 1182.24C1619.83 1182.98 1620.39 1183.72 1620.94 1184.46C1620.78 1184.12 1620.62 1183.78 1620.46 1183.43L1619.27 1182.24Z" fill="#FF7B92"/>
<path d="M1462.5 1164.22C1466.66 1168.18 1475.87 1178.35 1479.37 1187.36C1481.29 1192.28 1482.17 1197.68 1482.5 1202.25C1487.82 1157.23 1526.09 1122.32 1572.5 1122.32C1614.66 1122.32 1650.1 1151.12 1660.23 1190.13C1660.38 1189.9 1660.53 1189.67 1660.68 1189.44C1663.36 1184.02 1664.22 1176.11 1658.76 1166.09C1649.76 1149.59 1632.09 1138.79 1624.38 1135.45L1622.51 1102.94L1616.26 1084.18L1591.26 1053.53L1571.25 1034.77C1571.67 1035.19 1570.88 1040.03 1564.38 1056.04C1556.25 1076.05 1543.13 1077.3 1536.25 1077.3C1529.38 1077.3 1501.25 1079.17 1495 1081.05C1488.75 1082.93 1486.25 1098.56 1482.5 1113.57C1478.75 1128.57 1480.62 1143.58 1479.37 1146.71C1478.12 1149.84 1465.62 1154.21 1462.5 1157.34C1460 1159.84 1461.46 1162.97 1462.5 1164.22Z" fill="#FFD9DF"/>
<path d="M1629.38 1192.36C1630.01 1192.98 1635.01 1199.24 1649.38 1197.36C1654.19 1196.73 1657.71 1193.82 1660.23 1190.13C1650.1 1151.12 1614.66 1122.32 1572.5 1122.32C1526.09 1122.32 1487.82 1157.23 1482.5 1202.25C1482.78 1206.02 1482.69 1209.23 1482.5 1211.12C1499.86 1201.09 1524.75 1188.16 1548.47 1178.52C1564.76 1147.16 1585.27 1150.18 1603.11 1165C1610.7 1165.63 1615.9 1168.63 1617.51 1174.85C1618.25 1177.73 1619.12 1180.3 1620.09 1182.6C1620.55 1183.2 1621.01 1183.81 1621.46 1184.43L1629.38 1192.36Z" fill="#FFD9DF"/>
<path d="M1481.87 1213C1481.87 1245.2 1499.43 1273.85 1524.72 1289.93C1529.84 1234.22 1537.88 1198.91 1548.47 1178.52C1524.75 1188.16 1499.86 1201.09 1482.5 1211.12C1482.69 1209.23 1482.78 1206.02 1482.5 1202.25C1482.09 1205.77 1481.87 1209.36 1481.87 1213Z" fill="#FFD9DF"/>
<path d="M1533.13 1251.77C1538.13 1243.01 1546.88 1222.38 1566.88 1202.99C1582.88 1187.48 1608.27 1182.38 1618.89 1181.75C1616.03 1178.05 1613 1174.51 1609.85 1171.27C1607.11 1168.78 1604.25 1166.62 1601.3 1164.89C1591.35 1164.56 1577.8 1167.82 1563.01 1173C1548.53 1189.79 1537.43 1211.32 1527.08 1275.96C1527.3 1276.1 1524.83 1290.13 1525.05 1290.26C1526.65 1277.3 1529.7 1257.76 1533.13 1251.77Z" fill="#FFD9DF"/>
<path d="M1563.01 1173C1575.88 1158.07 1589.29 1157.85 1601.3 1164.89C1591.35 1164.56 1577.8 1167.82 1563.01 1173Z" fill="#FFD9DF"/>
<path d="M1617.51 1174.85C1615.9 1168.63 1610.7 1165.63 1603.11 1165C1605.4 1166.91 1607.66 1169.02 1609.85 1171.27C1613.49 1174.56 1616.92 1178.42 1620.09 1182.6C1619.12 1180.3 1618.25 1177.73 1617.51 1174.85Z" fill="#FFD9DF"/>
<path d="M1924.39 1453.93H1684.39L1909.39 1436.93L1924.39 1284.93L1924.39 1453.93Z" fill="#FF7B92"/>
<path d="M1201 758H1816V1373H1201V758Z" fill="#FF7B92"/>
</svg>
