<svg width="1925" height="1454" viewBox="0 0 1925 1454" fill="none" xmlns="http://www.w3.org/2000/svg">
<path d="M0.000368714 80C0.000410318 -26 6.31145 11.0471 239 0H1887.89C1956.89 22.3901 1929.68 368.89 1792.39 458L301.662 1414.47C137.544 1517.9 7.95046 1406.51 0.000366211 1214V668.5V194L0.000371218 80.5L0.000368714 80Z" fill="#FFC0CB"/>
<path d="M0.000368714 80C1.62162 -26.059 7.32094 10.9991 239 0H1899.89C1936.73 48.8901 1934.52 361.668 1797.63 442.331L312.394 1369.49C147.407 1471.55 6.32323 1406.57 0.000366211 1214V668.5V194L0.000371218 80.5L0.000368714 80Z" fill="#F86A83"/>
<path d="M0.000368714 80C1.58911 -26.5589 7.82568 10.9752 239 0H1899.89C1945.39 60.3901 1929.42 341.364 1797.63 427.966L298.849 1307.24C131.654 1405.71 2.0807 1406.66 0.000366211 1214V668.5V194L0.000371218 80.5L0.000368714 80Z" fill="#FF7B92"/>
<path fill-rule="evenodd" clip-rule="evenodd" d="M470.61 552.455C465.61 565.587 468.11 579.97 467.485 584.347C466.86 588.724 466.86 605.608 438.108 604.983C415.107 604.483 400.189 588.099 395.606 579.97C388.522 570.173 370.104 548.953 353.103 542.45C331.852 534.32 327.476 531.194 321.226 513.684C316.226 499.677 324.56 480.333 329.352 472.412C331.852 458.863 336.602 427.263 335.602 409.253C334.352 386.741 321.851 321.081 318.101 307.324C314.351 293.567 314.976 269.804 338.727 244.165C362.479 218.526 381.23 207.27 391.23 202.893C401.231 198.516 443.734 179.13 484.986 176.629C526.239 174.128 524.527 179.377 533.739 187.26C536.114 189.292 548.74 201.017 548.74 227.281C553.115 233.117 569.162 243.326 575.78 245.663C586.406 249.415 618.908 259.42 633.121 266.677C644.957 272.721 659.997 286.062 662.497 291.065C664.998 296.068 669.998 297.944 668.123 351.723C666.623 394.746 683.912 398.87 698.288 406.374L713.289 412.627L720.164 417.63L723.915 424.509L724.54 432.638L722.039 441.393L713.289 448.897L702.5 453.652C688.54 460.114 656.997 472.912 642.496 472.412C624.37 471.787 623.12 488.045 623.745 490.547C624.37 493.048 637.496 514.935 637.496 523.064C637.496 531.193 639.996 528.692 637.496 550.579C634.996 572.466 615.619 575.592 604.369 572.466C593.118 569.339 551.24 546.202 549.99 544.951C548.74 543.7 526.761 532.84 521.238 531.193C515.776 529.565 495.775 526.438 486.236 533.323C481.426 537.575 474.401 542.499 470.61 552.455ZM553.273 302.687C553.609 307.251 554.489 312.651 556.404 317.576C559.904 326.581 569.113 336.753 573.28 340.714C574.322 341.964 575.78 345.091 573.28 347.592C570.155 350.719 557.654 355.096 556.404 358.223C555.154 361.35 557.029 376.358 553.279 391.366C549.528 406.374 547.028 422.007 540.778 423.883C534.527 425.759 506.401 427.635 499.526 427.635C492.65 427.635 479.524 428.886 471.399 448.897C464.898 464.905 464.107 469.741 464.523 470.158L444.522 451.398L419.52 420.757L413.27 401.997L411.395 369.479C403.686 366.144 386.018 355.347 377.018 338.838C371.559 328.825 372.415 320.914 375.096 315.493C371.919 320.522 370.49 326.768 370.142 330.708L363.892 280.681C370.483 260.901 374.178 249.81 380.768 230.029L424.521 201.889L492.025 194.385L511.401 208.768C511.221 210.483 510.993 212.483 510.724 214.67C510.947 214.807 508.478 228.836 508.7 228.975C508.845 229.066 510.911 214.908 511.055 215C536.35 231.086 553.904 259.731 553.904 291.938C553.904 295.575 553.69 299.162 553.273 302.687Z" fill="#EB4764"/>
<path d="M375.519 314.686C373.641 307.417 372.643 299.794 372.643 291.938C372.643 241.86 413.219 201.264 463.273 201.264C480.67 201.264 496.923 206.168 510.724 214.67C510.993 212.483 511.221 210.483 511.401 208.768L492.025 194.385L424.521 201.889L380.768 230.029C374.178 249.81 370.483 260.901 363.892 280.681L370.142 330.708C370.49 326.768 371.919 320.522 375.096 315.493C375.232 315.218 375.373 314.949 375.519 314.686Z" fill="#EB4764"/>
<path d="M381.393 308.196C387.683 304.907 399.17 302.775 408.185 311.133C408.425 311.355 408.664 311.585 408.9 311.823C411.079 314.013 413.097 316.85 414.839 320.471C415.388 321.215 415.943 321.955 416.504 322.688L416.884 323.181C427.509 322.556 452.898 317.451 468.899 301.943C488.9 282.558 497.65 261.921 502.651 253.167C506.073 247.174 509.13 227.631 510.724 214.67C496.923 206.168 480.67 201.264 463.273 201.264C413.219 201.264 372.643 241.86 372.643 291.938C372.643 299.794 373.641 307.417 375.519 314.686C377.226 311.597 379.504 309.406 381.393 308.196Z" fill="#EB4764"/>
<path d="M472.769 331.936C477.512 330.275 482.383 328.417 487.305 326.417C497.902 306.018 505.94 270.71 511.055 215C510.911 214.908 508.845 229.066 508.7 228.975C498.35 293.616 487.248 315.141 472.769 331.936Z" fill="#EB4764"/>
<path d="M487.305 326.417C482.383 328.417 477.512 330.275 472.769 331.936C459.9 346.865 446.49 347.083 434.476 340.039C433.86 340.018 433.259 339.983 432.671 339.934C450.503 354.756 471.017 357.77 487.305 326.417Z" fill="#EB4764"/>
<path d="M416.504 322.688L415.318 321.501C415.441 321.775 415.563 322.054 415.683 322.337C418.856 326.513 422.292 330.372 425.923 333.661C422.634 330.282 419.477 326.57 416.504 322.688Z" fill="#EB4764"/>
<path d="M432.671 339.934C433.259 339.983 433.86 340.018 434.476 340.039C431.532 338.312 428.671 336.15 425.923 333.661C428.118 335.916 430.372 338.023 432.671 339.934Z" fill="#EB4764"/>
<path d="M386.393 307.571C400.769 305.695 405.77 311.948 406.395 312.574L414.321 320.503C412.132 317.49 410.079 314.337 408.185 311.133C399.17 302.775 387.683 304.907 381.393 308.196C379.504 309.406 377.226 311.597 375.519 314.686C375.529 314.725 375.539 314.764 375.549 314.803C378.062 311.11 381.583 308.199 386.393 307.571Z" fill="#EB4764"/>
<path d="M408.9 311.823C411.079 314.013 413.097 316.85 414.839 320.471C412.754 317.64 410.768 314.737 408.9 311.823Z" fill="#EB4764"/>
<path d="M408.9 311.823C408.664 311.585 408.425 311.355 408.185 311.133C410.079 314.337 412.132 317.49 414.321 320.503L415.318 321.501C415.161 321.151 415.001 320.808 414.839 320.471C412.754 317.64 410.768 314.737 408.9 311.823Z" fill="#EB4764"/>
<path d="M415.683 322.337C415.563 322.054 415.441 321.775 415.318 321.501L414.321 320.503C414.769 321.121 415.223 321.732 415.683 322.337Z" fill="#FF7B92"/>
<path d="M416.504 322.688C415.943 321.955 415.388 321.215 414.839 320.471C415.001 320.808 415.161 321.151 415.318 321.501L416.504 322.688Z" fill="#FF7B92"/>
<path d="M573.28 340.714C569.113 336.753 559.904 326.581 556.404 317.576C554.489 312.651 553.609 307.251 553.273 302.687C547.959 347.698 509.692 382.611 463.273 382.611C421.114 382.611 385.678 353.811 375.549 314.803C375.394 315.03 375.243 315.261 375.096 315.493C372.415 320.914 371.559 328.825 377.018 338.838C386.018 355.347 403.686 366.144 411.395 369.479L413.27 401.997L419.52 420.757L444.522 451.398L464.523 470.158C464.107 469.741 464.898 464.905 471.399 448.897C479.524 428.886 492.65 427.635 499.526 427.635C506.401 427.635 534.527 425.759 540.778 423.883C547.028 422.007 549.528 406.374 553.279 391.366C557.029 376.358 555.154 361.35 556.404 358.223C557.654 355.096 570.155 350.719 573.28 347.592C575.78 345.091 574.322 341.964 573.28 340.714Z" fill="#FFD9DF"/>
<path d="M406.395 312.574C405.77 311.948 400.769 305.695 386.393 307.571C381.583 308.199 378.062 311.11 375.549 314.803C385.678 353.811 421.114 382.611 463.273 382.611C509.692 382.611 547.959 347.698 553.273 302.687C552.995 298.908 553.09 295.702 553.279 293.814C535.914 303.84 511.026 316.777 487.305 326.417C471.017 357.77 450.503 354.756 432.671 339.934C425.08 339.302 419.879 336.305 418.27 330.083C417.525 327.201 416.655 324.629 415.683 322.337C415.223 321.732 414.769 321.121 414.321 320.503L406.395 312.574Z" fill="#FFD9DF"/>
<path d="M553.904 291.938C553.904 259.731 536.35 231.086 511.055 215C505.94 270.71 497.902 306.018 487.305 326.417C511.026 316.777 535.914 303.84 553.279 293.814C553.09 295.702 552.995 298.908 553.273 302.687C553.69 299.162 553.904 295.575 553.904 291.938Z" fill="#FFD9DF"/>
<path d="M502.651 253.167C497.65 261.921 488.9 282.558 468.899 301.943C452.898 317.451 427.509 322.556 416.884 323.181C419.745 326.884 422.773 330.425 425.923 333.661C428.671 336.15 431.532 338.312 434.476 340.039C444.428 340.377 457.977 337.116 472.769 331.936C487.248 315.141 498.35 293.616 508.7 228.975C508.478 228.836 510.947 214.807 510.724 214.67C509.13 227.631 506.073 247.174 502.651 253.167Z" fill="#FFD9DF"/>
<path d="M472.769 331.936C459.9 346.865 446.49 347.083 434.476 340.039C444.428 340.377 457.977 337.116 472.769 331.936Z" fill="#FFD9DF"/>
<path d="M418.27 330.083C419.879 336.305 425.08 339.302 432.671 339.934C430.372 338.023 428.118 335.916 425.923 333.661C422.292 330.372 418.856 326.513 415.683 322.337C416.655 324.629 417.525 327.201 418.27 330.083Z" fill="#FFD9DF"/>
<path d="M629.054 281.557H606.905C606.174 281.557 605.636 281.403 605.29 281.094C604.982 280.746 604.829 280.206 604.829 279.473V241.953C604.829 241.22 604.982 240.698 605.29 240.39C605.636 240.042 606.174 239.869 606.905 239.869H625.305C629.073 239.869 631.861 240.602 633.668 242.069C635.476 243.497 636.379 245.717 636.379 248.727V251.507C636.379 253.128 636.091 254.459 635.514 255.502C634.976 256.505 634.13 257.258 632.976 257.76C635.437 257.991 637.264 258.841 638.456 260.307C639.648 261.774 640.244 263.917 640.244 266.734V272.061C640.244 275.304 639.321 277.697 637.475 279.241C635.668 280.785 632.861 281.557 629.054 281.557ZM617.806 249.712V255.965H622.709C623.44 255.965 623.978 255.772 624.324 255.386C624.709 255 624.901 254.421 624.901 253.649V252.028C624.901 251.256 624.709 250.677 624.324 250.291C623.978 249.905 623.44 249.712 622.709 249.712H617.806ZM617.806 264.882V271.714H625.305C626.035 271.714 626.574 271.521 626.92 271.135C627.304 270.749 627.497 270.17 627.497 269.398V267.14C627.497 266.368 627.304 265.808 626.92 265.461C626.574 265.075 626.035 264.882 625.305 264.882H617.806Z" fill="white"/>
<path d="M675.463 281.557H648.7C647.97 281.557 647.431 281.403 647.085 281.094C646.778 280.746 646.624 280.206 646.624 279.473V241.953C646.624 241.22 646.778 240.698 647.085 240.39C647.431 240.042 647.97 239.869 648.7 239.869H675.463C676.194 239.869 676.713 240.042 677.02 240.39C677.367 240.698 677.539 241.22 677.539 241.953V248.727C677.539 249.461 677.367 250.001 677.02 250.349C676.713 250.657 676.194 250.812 675.463 250.812H659.544V255.27H670.791C671.522 255.27 672.041 255.444 672.348 255.791C672.694 256.1 672.867 256.621 672.867 257.355V263.55C672.867 264.283 672.694 264.824 672.348 265.171C672.041 265.48 671.522 265.634 670.791 265.634H659.544V270.614H675.463C676.194 270.614 676.713 270.788 677.02 271.135C677.367 271.444 677.539 271.965 677.539 272.698V279.473C677.539 280.206 677.367 280.746 677.02 281.094C676.713 281.403 676.194 281.557 675.463 281.557Z" fill="white"/>
<path d="M695.034 281.557H686.439C685.709 281.557 685.17 281.403 684.824 281.094C684.517 280.746 684.363 280.206 684.363 279.473V241.953C684.363 241.22 684.517 240.698 684.824 240.39C685.17 240.042 685.709 239.869 686.439 239.869H695.726C696.341 239.869 696.841 240.004 697.225 240.274C697.648 240.544 698.033 240.988 698.379 241.606L703.57 251.043C703.762 251.391 703.916 251.642 704.031 251.796C704.185 251.95 704.377 252.028 704.608 252.028H705.127C705.358 252.028 705.531 251.95 705.646 251.796C705.8 251.642 705.973 251.391 706.166 251.043L711.299 241.606C711.645 240.988 712.01 240.544 712.395 240.274C712.818 240.004 713.337 239.869 713.952 239.869H723.296C724.027 239.869 724.546 240.042 724.854 240.39C725.2 240.698 725.373 241.22 725.373 241.953V279.473C725.373 280.206 725.2 280.746 724.854 281.094C724.546 281.403 724.027 281.557 723.296 281.557H714.414C713.683 281.557 713.145 281.403 712.799 281.094C712.491 280.746 712.337 280.206 712.337 279.473V259.092L708.934 265.403C708.588 266.059 708.165 266.541 707.665 266.85C707.204 267.12 706.608 267.256 705.877 267.256H703.57C702.839 267.256 702.224 267.12 701.724 266.85C701.263 266.541 700.859 266.059 700.513 265.403L697.11 259.092V279.473C697.11 280.206 696.937 280.746 696.591 281.094C696.283 281.403 695.764 281.557 695.034 281.557Z" fill="white"/>
<path d="M772.866 281.557H757.869C757.139 281.557 756.524 281.422 756.024 281.152C755.562 280.882 755.197 280.38 754.928 279.646L749.275 265.461C748.929 264.611 748.641 263.878 748.41 263.26C748.179 262.604 747.987 261.987 747.833 261.408C747.679 260.829 747.564 260.23 747.487 259.613C747.449 258.956 747.429 258.165 747.429 257.239V241.953C747.429 241.22 747.583 240.698 747.891 240.39C748.237 240.042 748.775 239.869 749.506 239.869H758.677C759.407 239.869 759.965 240.042 760.35 240.39C760.734 240.698 760.926 241.22 760.926 241.953V257.934C760.926 258.32 760.965 258.706 761.042 259.092C761.119 259.478 761.234 259.883 761.388 260.307L764.099 268.414C764.214 268.8 764.349 269.07 764.503 269.224C764.656 269.34 764.887 269.398 765.195 269.398H765.829C766.137 269.398 766.367 269.34 766.521 269.224C766.675 269.07 766.81 268.8 766.925 268.414L769.636 260.25C769.79 259.825 769.905 259.42 769.982 259.034C770.059 258.648 770.097 258.262 770.097 257.876V241.953C770.097 241.22 770.251 240.698 770.559 240.39C770.905 240.042 771.443 239.869 772.174 239.869H781.229C781.96 239.869 782.479 240.042 782.787 240.39C783.133 240.698 783.306 241.22 783.306 241.953V257.239C783.306 258.165 783.268 258.956 783.191 259.613C783.152 260.23 783.056 260.829 782.902 261.408C782.748 261.987 782.556 262.604 782.325 263.26C782.095 263.878 781.806 264.611 781.46 265.461L775.808 279.646C775.538 280.38 775.154 280.882 774.654 281.152C774.193 281.422 773.597 281.557 772.866 281.557Z" fill="white"/>
<path d="M791.581 281.557C790.85 281.557 790.312 281.403 789.966 281.094C789.658 280.746 789.505 280.206 789.505 279.473V272.582C789.505 271.849 789.658 271.328 789.966 271.019C790.312 270.672 790.85 270.498 791.581 270.498H797.291V251.043H791.581C790.85 251.043 790.312 250.889 789.966 250.58C789.658 250.233 789.505 249.692 789.505 248.959V241.953C789.505 241.22 789.658 240.698 789.966 240.39C790.312 240.042 790.85 239.869 791.581 239.869H816.152C816.883 239.869 817.402 240.042 817.71 240.39C818.056 240.698 818.229 241.22 818.229 241.953V248.959C818.229 249.692 818.056 250.233 817.71 250.58C817.402 250.889 816.883 251.043 816.152 251.043H810.557V270.498H816.152C816.883 270.498 817.402 270.672 817.71 271.019C818.056 271.328 818.229 271.849 818.229 272.582V279.473C818.229 280.206 818.056 280.746 817.71 281.094C817.402 281.403 816.883 281.557 816.152 281.557H791.581Z" fill="white"/>
<path d="M836.079 281.557H827.427C826.696 281.557 826.158 281.403 825.812 281.094C825.504 280.746 825.35 280.206 825.35 279.473V241.953C825.35 241.22 825.504 240.698 825.812 240.39C826.158 240.042 826.696 239.869 827.427 239.869H833.426C834.156 239.869 834.771 239.984 835.271 240.216C835.81 240.448 836.329 240.853 836.829 241.432L848.018 254.286V241.953C848.018 241.22 848.172 240.698 848.48 240.39C848.826 240.042 849.364 239.869 850.095 239.869H858.747C859.477 239.869 859.997 240.042 860.304 240.39C860.65 240.698 860.823 241.22 860.823 241.953V279.473C860.823 280.206 860.65 280.746 860.304 281.094C859.997 281.403 859.477 281.557 858.747 281.557H850.095C849.364 281.557 848.826 281.403 848.48 281.094C848.172 280.746 848.018 280.206 848.018 279.473V272.351L838.155 260.365V279.473C838.155 280.206 837.982 280.746 837.636 281.094C837.328 281.403 836.809 281.557 836.079 281.557Z" fill="white"/>
<path d="M890.293 281.557H870.855C870.125 281.557 869.586 281.403 869.24 281.094C868.933 280.746 868.779 280.206 868.779 279.473V241.953C868.779 241.22 868.933 240.698 869.24 240.39C869.586 240.042 870.125 239.869 870.855 239.869H890.293C895.1 239.869 898.657 240.834 900.964 242.764C903.31 244.694 904.482 247.666 904.482 251.68V269.745C904.482 273.76 903.31 276.732 900.964 278.662C898.657 280.592 895.1 281.557 890.293 281.557ZM881.872 250.928V270.614H888.736C889.659 270.614 890.332 270.382 890.755 269.919C891.216 269.456 891.447 268.742 891.447 267.777V253.707C891.447 252.742 891.216 252.047 890.755 251.622C890.332 251.159 889.659 250.928 888.736 250.928H881.872Z" fill="white"/>
<path d="M946.998 270.614C946.998 272.389 946.728 274.011 946.19 275.477C945.69 276.906 944.767 278.141 943.421 279.183C942.114 280.187 940.288 280.978 937.942 281.557C935.635 282.136 932.693 282.426 929.117 282.426C925.541 282.426 922.58 282.136 920.234 281.557C917.889 280.978 916.043 280.187 914.697 279.183C913.39 278.141 912.467 276.906 911.929 275.477C911.429 274.011 911.179 272.389 911.179 270.614V250.87C911.179 249.094 911.429 247.492 911.929 246.064C912.467 244.597 913.39 243.343 914.697 242.3C916.043 241.258 917.889 240.448 920.234 239.869C922.58 239.29 925.541 239 929.117 239C932.693 239 935.635 239.29 937.942 239.869C940.288 240.448 942.114 241.258 943.421 242.3C944.767 243.343 945.69 244.597 946.19 246.064C946.728 247.492 946.998 249.094 946.998 250.87V270.614ZM924.272 268.529C924.272 269.301 924.56 269.958 925.137 270.498C925.714 271 927.041 271.251 929.117 271.251C931.194 271.251 932.52 271 933.097 270.498C933.674 269.958 933.962 269.301 933.962 268.529V252.954C933.962 252.221 933.674 251.603 933.097 251.101C932.52 250.561 931.194 250.291 929.117 250.291C927.041 250.291 925.714 250.561 925.137 251.101C924.56 251.603 924.272 252.221 924.272 252.954V268.529Z" fill="white"/>
<path d="M973.605 281.557H955.379C954.648 281.557 954.11 281.403 953.764 281.094C953.456 280.746 953.302 280.206 953.302 279.473V272.698C953.302 271.965 953.456 271.444 953.764 271.135C954.11 270.788 954.648 270.614 955.379 270.614H970.894C971.394 270.614 971.76 270.459 971.99 270.151C972.259 269.803 972.394 269.398 972.394 268.935C972.394 268.278 972.259 267.796 971.99 267.487C971.76 267.178 971.394 267.005 970.894 266.966L962.242 265.75C959.551 265.364 957.378 264.476 955.725 263.087C954.11 261.697 953.302 259.381 953.302 256.139V250.059C953.302 246.778 954.36 244.269 956.475 242.532C958.59 240.756 961.512 239.869 965.242 239.869H981.392C982.123 239.869 982.642 240.042 982.949 240.39C983.295 240.698 983.469 241.22 983.469 241.953V248.843C983.469 249.577 983.295 250.117 982.949 250.464C982.642 250.773 982.123 250.928 981.392 250.928H967.953C967.453 250.928 967.068 251.101 966.799 251.449C966.53 251.757 966.395 252.163 966.395 252.665C966.395 253.166 966.53 253.591 966.799 253.938C967.068 254.286 967.453 254.479 967.953 254.517L976.547 255.675C979.239 256.061 981.411 256.949 983.065 258.339C984.718 259.728 985.545 262.044 985.545 265.287V271.367C985.545 274.648 984.468 277.176 982.315 278.952C980.2 280.689 977.297 281.557 973.605 281.557Z" fill="white"/>
<path d="M1021.89 252.028L1019.18 260.829H1028.24L1025.53 252.028C1025.37 251.68 1025.2 251.429 1025.01 251.275C1024.85 251.121 1024.66 251.043 1024.43 251.043H1022.99C1022.76 251.043 1022.55 251.121 1022.35 251.275C1022.2 251.429 1022.05 251.68 1021.89 252.028ZM1018.6 279.473C1018.6 280.206 1018.43 280.746 1018.09 281.094C1017.78 281.403 1017.26 281.557 1016.53 281.557H1008.05C1007.32 281.557 1006.78 281.403 1006.43 281.094C1006.13 280.746 1005.97 280.206 1005.97 279.473V264.187C1005.97 263.029 1006.15 261.697 1006.49 260.192C1006.88 258.686 1007.45 256.93 1008.22 254.923L1013.24 241.779C1013.47 241.123 1013.82 240.641 1014.28 240.332C1014.78 240.023 1015.41 239.869 1016.18 239.869H1031.7C1032.43 239.869 1033.02 240.023 1033.49 240.332C1033.99 240.641 1034.35 241.123 1034.58 241.779L1039.6 254.923C1040.37 256.93 1040.93 258.686 1041.27 260.192C1041.66 261.697 1041.85 263.029 1041.85 264.187V279.473C1041.85 280.206 1041.68 280.746 1041.33 281.094C1041.02 281.403 1040.5 281.557 1039.77 281.557H1031.06C1030.29 281.557 1029.72 281.403 1029.33 281.094C1028.99 280.746 1028.81 280.206 1028.81 279.473V271.367H1018.6V279.473Z" fill="white"/>
<path d="M632.457 351.038H618.383C613.577 351.038 610 350.073 607.655 348.143C605.348 346.213 604.194 343.241 604.194 339.226V321.219C604.194 317.205 605.348 314.232 607.655 312.302C610 310.334 613.577 309.349 618.383 309.349H632.457C633.188 309.349 633.707 309.523 634.015 309.871C634.361 310.179 634.534 310.7 634.534 311.434V318.44C634.534 319.173 634.361 319.714 634.015 320.061C633.707 320.37 633.188 320.524 632.457 320.524H620.863C619.671 320.524 618.787 320.775 618.21 321.277C617.633 321.74 617.345 322.454 617.345 323.419V337.2C617.345 338.165 617.633 338.879 618.21 339.342C618.787 339.767 619.671 339.979 620.863 339.979H632.457C633.188 339.979 633.707 340.153 634.015 340.5C634.361 340.809 634.534 341.33 634.534 342.063V348.954C634.534 349.687 634.361 350.227 634.015 350.575C633.707 350.884 633.188 351.038 632.457 351.038Z" fill="white"/>
<path d="M672.482 351.038H643.124C642.393 351.038 641.855 350.884 641.509 350.575C641.201 350.227 641.047 349.687 641.047 348.954V311.434C641.047 310.7 641.201 310.179 641.509 309.871C641.855 309.523 642.393 309.349 643.124 309.349H652.064C652.795 309.349 653.314 309.523 653.621 309.871C653.967 310.179 654.14 310.7 654.14 311.434V340.095H662.042V330.715C662.042 329.981 662.196 329.46 662.504 329.152C662.85 328.804 663.388 328.63 664.119 328.63H672.482C673.213 328.63 673.732 328.804 674.039 329.152C674.386 329.46 674.559 329.981 674.559 330.715V348.954C674.559 349.687 674.386 350.227 674.039 350.575C673.732 350.884 673.213 351.038 672.482 351.038Z" fill="white"/>
<path d="M682.306 351.038C681.575 351.038 681.037 350.884 680.691 350.575C680.383 350.227 680.229 349.687 680.229 348.954V342.063C680.229 341.33 680.383 340.809 680.691 340.5C681.037 340.153 681.575 339.979 682.306 339.979H688.016V320.524H682.306C681.575 320.524 681.037 320.37 680.691 320.061C680.383 319.714 680.229 319.173 680.229 318.44V311.434C680.229 310.7 680.383 310.179 680.691 309.871C681.037 309.523 681.575 309.349 682.306 309.349H706.877C707.608 309.349 708.127 309.523 708.434 309.871C708.78 310.179 708.954 310.7 708.954 311.434V318.44C708.954 319.173 708.78 319.714 708.434 320.061C708.127 320.37 707.608 320.524 706.877 320.524H701.282V339.979H706.877C707.608 339.979 708.127 340.153 708.434 340.5C708.78 340.809 708.954 341.33 708.954 342.063V348.954C708.954 349.687 708.78 350.227 708.434 350.575C708.127 350.884 707.608 351.038 706.877 351.038H682.306Z" fill="white"/>
<path d="M726.804 351.038H718.152C717.421 351.038 716.883 350.884 716.537 350.575C716.229 350.227 716.075 349.687 716.075 348.954V311.434C716.075 310.7 716.229 310.179 716.537 309.871C716.883 309.523 717.421 309.349 718.152 309.349H724.15C724.881 309.349 725.496 309.465 725.996 309.697C726.534 309.928 727.054 310.334 727.553 310.913L738.743 323.767V311.434C738.743 310.7 738.897 310.179 739.205 309.871C739.551 309.523 740.089 309.349 740.82 309.349H749.472C750.202 309.349 750.721 309.523 751.029 309.871C751.375 310.179 751.548 310.7 751.548 311.434V348.954C751.548 349.687 751.375 350.227 751.029 350.575C750.721 350.884 750.202 351.038 749.472 351.038H740.82C740.089 351.038 739.551 350.884 739.205 350.575C738.897 350.227 738.743 349.687 738.743 348.954V341.832L728.88 329.846V348.954C728.88 349.687 728.707 350.227 728.361 350.575C728.053 350.884 727.534 351.038 726.804 351.038Z" fill="white"/>
<path d="M760.657 351.038C759.927 351.038 759.388 350.884 759.042 350.575C758.735 350.227 758.581 349.687 758.581 348.954V342.063C758.581 341.33 758.735 340.809 759.042 340.5C759.388 340.153 759.927 339.979 760.657 339.979H766.368V320.524H760.657C759.927 320.524 759.388 320.37 759.042 320.061C758.735 319.714 758.581 319.173 758.581 318.44V311.434C758.581 310.7 758.735 310.179 759.042 309.871C759.388 309.523 759.927 309.349 760.657 309.349H785.229C785.959 309.349 786.478 309.523 786.786 309.871C787.132 310.179 787.305 310.7 787.305 311.434V318.44C787.305 319.173 787.132 319.714 786.786 320.061C786.478 320.37 785.959 320.524 785.229 320.524H779.634V339.979H785.229C785.959 339.979 786.478 340.153 786.786 340.5C787.132 340.809 787.305 341.33 787.305 342.063V348.954C787.305 349.687 787.132 350.227 786.786 350.575C786.478 350.884 785.959 351.038 785.229 351.038H760.657Z" fill="white"/>
<path d="M822.055 351.038H807.981C803.175 351.038 799.598 350.073 797.253 348.143C794.946 346.213 793.792 343.241 793.792 339.226V321.219C793.792 317.205 794.946 314.232 797.253 312.302C799.598 310.334 803.175 309.349 807.981 309.349H822.055C822.786 309.349 823.305 309.523 823.612 309.871C823.958 310.179 824.131 310.7 824.131 311.434V318.44C824.131 319.173 823.958 319.714 823.612 320.061C823.305 320.37 822.786 320.524 822.055 320.524H810.461C809.269 320.524 808.385 320.775 807.808 321.277C807.231 321.74 806.943 322.454 806.943 323.419V337.2C806.943 338.165 807.231 338.879 807.808 339.342C808.385 339.767 809.269 339.979 810.461 339.979H822.055C822.786 339.979 823.305 340.153 823.612 340.5C823.958 340.809 824.131 341.33 824.131 342.063V348.954C824.131 349.687 823.958 350.227 823.612 350.575C823.305 350.884 822.786 351.038 822.055 351.038Z" fill="white"/>
<path d="M845.699 321.509L842.989 330.31H852.044L849.333 321.509C849.179 321.161 849.006 320.91 848.814 320.756C848.66 320.602 848.468 320.524 848.237 320.524H846.795C846.565 320.524 846.353 320.602 846.161 320.756C846.007 320.91 845.853 321.161 845.699 321.509ZM842.412 348.954C842.412 349.687 842.239 350.227 841.893 350.575C841.585 350.884 841.066 351.038 840.335 351.038H831.857C831.126 351.038 830.588 350.884 830.242 350.575C829.934 350.227 829.78 349.687 829.78 348.954V333.668C829.78 332.51 829.953 331.178 830.299 329.673C830.684 328.167 831.261 326.411 832.03 324.404L837.048 311.26C837.278 310.604 837.624 310.121 838.086 309.813C838.586 309.504 839.22 309.349 839.989 309.349H855.505C856.236 309.349 856.832 309.504 857.293 309.813C857.793 310.121 858.158 310.604 858.389 311.26L863.407 324.404C864.176 326.411 864.734 328.167 865.08 329.673C865.464 331.178 865.656 332.51 865.656 333.668V348.954C865.656 349.687 865.484 350.227 865.137 350.575C864.83 350.884 864.311 351.038 863.58 351.038H854.871C854.101 351.038 853.525 350.884 853.14 350.575C852.794 350.227 852.621 349.687 852.621 348.954V340.847H842.412V348.954Z" fill="white"/>
<path d="M615.845 420.519H606.905C606.174 420.519 605.636 420.365 605.29 420.056C604.982 419.708 604.829 419.168 604.829 418.435V380.915C604.829 380.181 604.982 379.66 605.29 379.352C605.636 379.004 606.174 378.83 606.905 378.83H624.555C629.785 378.83 633.361 379.873 635.283 381.957C637.206 384.041 638.167 386.763 638.167 390.121V397.532C638.167 400.891 637.206 403.612 635.283 405.696C633.361 407.781 629.785 408.823 624.555 408.823H617.922V418.435C617.922 419.168 617.749 419.708 617.403 420.056C617.095 420.365 616.576 420.519 615.845 420.519ZM617.806 389.658V398.401H622.998C624.113 398.401 624.843 398.111 625.189 397.532C625.536 396.953 625.709 396.297 625.709 395.564V392.495C625.709 391.762 625.536 391.105 625.189 390.526C624.843 389.947 624.113 389.658 622.998 389.658H617.806Z" fill="white"/>
<path d="M645.299 420.519C644.568 420.519 644.03 420.365 643.684 420.056C643.376 419.708 643.223 419.168 643.223 418.435V411.544C643.223 410.811 643.376 410.29 643.684 409.981C644.03 409.634 644.568 409.46 645.299 409.46H651.009V390.005H645.299C644.568 390.005 644.03 389.851 643.684 389.542C643.376 389.195 643.223 388.654 643.223 387.921V380.915C643.223 380.181 643.376 379.66 643.684 379.352C644.03 379.004 644.568 378.83 645.299 378.83H669.87C670.601 378.83 671.12 379.004 671.427 379.352C671.773 379.66 671.946 380.181 671.946 380.915V387.921C671.946 388.654 671.773 389.195 671.427 389.542C671.12 389.851 670.601 390.005 669.87 390.005H664.275V409.46H669.87C670.601 409.46 671.12 409.634 671.427 409.981C671.773 410.29 671.946 410.811 671.946 411.544V418.435C671.946 419.168 671.773 419.708 671.427 420.056C671.12 420.365 670.601 420.519 669.87 420.519H645.299Z" fill="white"/>
<path d="M689.796 420.519H681.144C680.414 420.519 679.876 420.365 679.529 420.056C679.222 419.708 679.068 419.168 679.068 418.435V380.915C679.068 380.181 679.222 379.66 679.529 379.352C679.876 379.004 680.414 378.83 681.144 378.83H687.143C687.874 378.83 688.489 378.946 688.989 379.178C689.527 379.409 690.046 379.815 690.546 380.394L701.736 393.248V380.915C701.736 380.181 701.89 379.66 702.197 379.352C702.544 379.004 703.082 378.83 703.812 378.83H712.464C713.195 378.83 713.714 379.004 714.022 379.352C714.368 379.66 714.541 380.181 714.541 380.915V418.435C714.541 419.168 714.368 419.708 714.022 420.056C713.714 420.365 713.195 420.519 712.464 420.519H703.812C703.082 420.519 702.544 420.365 702.197 420.056C701.89 419.708 701.736 419.168 701.736 418.435V411.313L691.873 399.327V418.435C691.873 419.168 691.7 419.708 691.354 420.056C691.046 420.365 690.527 420.519 689.796 420.519Z" fill="white"/>
<path d="M733.513 420.519H724.573C723.842 420.519 723.304 420.365 722.958 420.056C722.65 419.708 722.497 419.168 722.497 418.435V380.915C722.497 380.181 722.65 379.66 722.958 379.352C723.304 379.004 723.842 378.83 724.573 378.83H733.513C734.244 378.83 734.763 379.004 735.071 379.352C735.417 379.66 735.59 380.181 735.59 380.915V394.232H737.897L743.838 380.741C744.107 380.046 744.473 379.564 744.934 379.294C745.395 378.985 745.991 378.83 746.722 378.83H755.605C756.258 378.83 756.7 379.004 756.931 379.352C757.162 379.66 757.143 380.124 756.874 380.741L750.99 394.232C753.144 394.348 754.855 395.12 756.124 396.548C757.431 397.938 758.085 399.791 758.085 402.107V418.435C758.085 419.168 757.912 419.708 757.566 420.056C757.258 420.365 756.739 420.519 756.008 420.519H747.126C746.395 420.519 745.857 420.365 745.511 420.056C745.203 419.708 745.049 419.168 745.049 418.435V407.144C745.049 406.526 744.895 406.044 744.588 405.696C744.28 405.349 743.819 405.175 743.203 405.175H735.59V418.435C735.59 419.168 735.417 419.708 735.071 420.056C734.763 420.365 734.244 420.519 733.513 420.519Z" fill="white"/>
<path d="M802.028 420.519H782.59C781.86 420.519 781.321 420.365 780.975 420.056C780.668 419.708 780.514 419.168 780.514 418.435V380.915C780.514 380.181 780.668 379.66 780.975 379.352C781.321 379.004 781.86 378.83 782.59 378.83H802.028C806.835 378.83 810.392 379.795 812.699 381.725C815.044 383.655 816.217 386.628 816.217 390.642V408.707C816.217 412.722 815.044 415.694 812.699 417.624C810.392 419.554 806.835 420.519 802.028 420.519ZM793.607 389.889V409.576H800.471C801.394 409.576 802.067 409.344 802.49 408.881C802.951 408.418 803.182 407.704 803.182 406.739V392.669C803.182 391.704 802.951 391.009 802.49 390.584C802.067 390.121 801.394 389.889 800.471 389.889H793.607Z" fill="white"/>
<path d="M824.702 420.519C823.971 420.519 823.433 420.365 823.086 420.056C822.779 419.708 822.625 419.168 822.625 418.435V411.544C822.625 410.811 822.779 410.29 823.086 409.981C823.433 409.634 823.971 409.46 824.702 409.46H830.412V390.005H824.702C823.971 390.005 823.433 389.851 823.086 389.542C822.779 389.195 822.625 388.654 822.625 387.921V380.915C822.625 380.181 822.779 379.66 823.086 379.352C823.433 379.004 823.971 378.83 824.702 378.83H849.273C850.004 378.83 850.523 379.004 850.83 379.352C851.176 379.66 851.349 380.181 851.349 380.915V387.921C851.349 388.654 851.176 389.195 850.83 389.542C850.523 389.851 850.004 390.005 849.273 390.005H843.678V409.46H849.273C850.004 409.46 850.523 409.634 850.83 409.981C851.176 410.29 851.349 410.811 851.349 411.544V418.435C851.349 419.168 851.176 419.708 850.83 420.056C850.523 420.365 850.004 420.519 849.273 420.519H824.702Z" fill="white"/>
<path d="M873.525 390.99L870.814 399.791H879.87L877.159 390.99C877.005 390.642 876.832 390.391 876.64 390.237C876.486 390.082 876.294 390.005 876.063 390.005H874.621C874.39 390.005 874.179 390.082 873.987 390.237C873.833 390.391 873.679 390.642 873.525 390.99ZM870.238 418.435C870.238 419.168 870.064 419.708 869.718 420.056C869.411 420.365 868.892 420.519 868.161 420.519H859.682C858.952 420.519 858.413 420.365 858.067 420.056C857.76 419.708 857.606 419.168 857.606 418.435V403.149C857.606 401.991 857.779 400.659 858.125 399.154C858.509 397.648 859.086 395.892 859.855 393.885L864.873 380.741C865.104 380.085 865.45 379.602 865.912 379.294C866.412 378.985 867.046 378.83 867.815 378.83H883.331C884.061 378.83 884.657 378.985 885.119 379.294C885.619 379.602 885.984 380.085 886.215 380.741L891.233 393.885C892.002 395.892 892.56 397.648 892.906 399.154C893.29 400.659 893.482 401.991 893.482 403.149V418.435C893.482 419.168 893.309 419.708 892.963 420.056C892.656 420.365 892.137 420.519 891.406 420.519H882.696C881.927 420.519 881.35 420.365 880.966 420.056C880.62 419.708 880.447 419.168 880.447 418.435V410.328H870.238V418.435Z" fill="white"/>
<path d="M911.275 420.519H902.68C901.95 420.519 901.411 420.365 901.065 420.056C900.758 419.708 900.604 419.168 900.604 418.435V380.915C900.604 380.181 900.758 379.66 901.065 379.352C901.411 379.004 901.95 378.83 902.68 378.83H911.967C912.582 378.83 913.082 378.966 913.466 379.236C913.889 379.506 914.274 379.95 914.62 380.567L919.811 390.005C920.004 390.353 920.157 390.604 920.273 390.758C920.427 390.912 920.619 390.99 920.85 390.99H921.369C921.599 390.99 921.772 390.912 921.888 390.758C922.042 390.604 922.215 390.353 922.407 390.005L927.54 380.567C927.886 379.95 928.252 379.506 928.636 379.236C929.059 378.966 929.578 378.83 930.194 378.83H939.538C940.268 378.83 940.787 379.004 941.095 379.352C941.441 379.66 941.614 380.181 941.614 380.915V418.435C941.614 419.168 941.441 419.708 941.095 420.056C940.787 420.365 940.268 420.519 939.538 420.519H930.655C929.924 420.519 929.386 420.365 929.04 420.056C928.732 419.708 928.579 419.168 928.579 418.435V398.053L925.176 404.365C924.829 405.021 924.407 405.503 923.907 405.812C923.445 406.082 922.849 406.217 922.119 406.217H919.811C919.081 406.217 918.465 406.082 917.966 405.812C917.504 405.503 917.1 405.021 916.754 404.365L913.351 398.053V418.435C913.351 419.168 913.178 419.708 912.832 420.056C912.524 420.365 912.005 420.519 911.275 420.519Z" fill="white"/>
<path d="M984.737 409.576C984.737 411.351 984.468 412.973 983.93 414.439C983.43 415.868 982.507 417.103 981.161 418.145C979.853 419.149 978.027 419.94 975.681 420.519C973.374 421.098 970.432 421.388 966.856 421.388C963.28 421.388 960.32 421.098 957.974 420.519C955.628 419.94 953.782 419.149 952.437 418.145C951.129 417.103 950.206 415.868 949.668 414.439C949.168 412.973 948.918 411.351 948.918 409.576V389.832C948.918 388.056 949.168 386.454 949.668 385.026C950.206 383.559 951.129 382.304 952.437 381.262C953.782 380.22 955.628 379.409 957.974 378.83C960.32 378.251 963.28 377.962 966.856 377.962C970.432 377.962 973.374 378.251 975.681 378.83C978.027 379.409 979.853 380.22 981.161 381.262C982.507 382.304 983.43 383.559 983.93 385.026C984.468 386.454 984.737 388.056 984.737 389.832V409.576ZM962.011 407.491C962.011 408.263 962.3 408.92 962.876 409.46C963.453 409.962 964.78 410.213 966.856 410.213C968.933 410.213 970.259 409.962 970.836 409.46C971.413 408.92 971.701 408.263 971.701 407.491V391.916C971.701 391.183 971.413 390.565 970.836 390.063C970.259 389.523 968.933 389.253 966.856 389.253C964.78 389.253 963.453 389.523 962.876 390.063C962.3 390.565 962.011 391.183 962.011 391.916V407.491Z" fill="white"/>
<path d="M1002.81 420.519H994.156C993.426 420.519 992.887 420.365 992.541 420.056C992.234 419.708 992.08 419.168 992.08 418.435V380.915C992.08 380.181 992.234 379.66 992.541 379.352C992.887 379.004 993.426 378.83 994.156 378.83H1000.16C1000.89 378.83 1001.5 378.946 1002 379.178C1002.54 379.409 1003.06 379.815 1003.56 380.394L1014.75 393.248V380.915C1014.75 380.181 1014.9 379.66 1015.21 379.352C1015.56 379.004 1016.09 378.83 1016.82 378.83H1025.48C1026.21 378.83 1026.73 379.004 1027.03 379.352C1027.38 379.66 1027.55 380.181 1027.55 380.915V418.435C1027.55 419.168 1027.38 419.708 1027.03 420.056C1026.73 420.365 1026.21 420.519 1025.48 420.519H1016.82C1016.09 420.519 1015.56 420.365 1015.21 420.056C1014.9 419.708 1014.75 419.168 1014.75 418.435V411.313L1004.88 399.327V418.435C1004.88 419.168 1004.71 419.708 1004.37 420.056C1004.06 420.365 1003.54 420.519 1002.81 420.519Z" fill="white"/>
<path d="M1057.02 420.519H1037.58C1036.85 420.519 1036.32 420.365 1035.97 420.056C1035.66 419.708 1035.51 419.168 1035.51 418.435V380.915C1035.51 380.181 1035.66 379.66 1035.97 379.352C1036.32 379.004 1036.85 378.83 1037.58 378.83H1057.02C1061.83 378.83 1065.39 379.795 1067.69 381.725C1070.04 383.655 1071.21 386.628 1071.21 390.642V408.707C1071.21 412.722 1070.04 415.694 1067.69 417.624C1065.39 419.554 1061.83 420.519 1057.02 420.519ZM1048.6 389.889V409.576H1055.47C1056.39 409.576 1057.06 409.344 1057.48 408.881C1057.95 408.418 1058.18 407.704 1058.18 406.739V392.669C1058.18 391.704 1057.95 391.009 1057.48 390.584C1057.06 390.121 1056.39 389.889 1055.47 389.889H1048.6Z" fill="white"/>
<path d="M624.094 490H605.867C605.136 490 604.598 489.846 604.252 489.537C603.944 489.189 603.79 488.649 603.79 487.916V481.141C603.79 480.408 603.944 479.887 604.252 479.578C604.598 479.23 605.136 479.057 605.867 479.057H621.383C621.882 479.057 622.248 478.902 622.479 478.594C622.748 478.246 622.882 477.841 622.882 477.378C622.882 476.721 622.748 476.239 622.479 475.93C622.248 475.621 621.882 475.448 621.383 475.409L612.731 474.193C610.039 473.807 607.866 472.919 606.213 471.53C604.598 470.14 603.79 467.824 603.79 464.582V458.502C603.79 455.221 604.848 452.712 606.963 450.975C609.078 449.199 612 448.311 615.73 448.311H631.88C632.611 448.311 633.13 448.485 633.438 448.832C633.784 449.141 633.957 449.662 633.957 450.396V457.286C633.957 458.019 633.784 458.56 633.438 458.907C633.13 459.216 632.611 459.37 631.88 459.37H618.441C617.941 459.37 617.556 459.544 617.287 459.892C617.018 460.2 616.883 460.606 616.883 461.107C616.883 461.609 617.018 462.034 617.287 462.381C617.556 462.729 617.941 462.922 618.441 462.96L627.035 464.118C629.727 464.504 631.9 465.392 633.553 466.782C635.207 468.171 636.033 470.487 636.033 473.73V479.809C636.033 483.09 634.957 485.619 632.803 487.394C630.688 489.131 627.785 490 624.094 490Z" fill="white"/>
<path d="M653.36 490H644.419C643.689 490 643.15 489.846 642.804 489.537C642.497 489.189 642.343 488.649 642.343 487.916V450.396C642.343 449.662 642.497 449.141 642.804 448.832C643.15 448.485 643.689 448.311 644.419 448.311H653.36C654.09 448.311 654.609 448.485 654.917 448.832C655.263 449.141 655.436 449.662 655.436 450.396V463.713H657.743L663.684 450.222C663.953 449.527 664.319 449.045 664.78 448.775C665.241 448.466 665.837 448.311 666.568 448.311H675.45C676.104 448.311 676.546 448.485 676.777 448.832C677.008 449.141 676.989 449.604 676.719 450.222L670.836 463.713C672.99 463.829 674.701 464.601 675.97 466.029C677.277 467.419 677.931 469.271 677.931 471.587V487.916C677.931 488.649 677.758 489.189 677.412 489.537C677.104 489.846 676.585 490 675.854 490H666.972C666.241 490 665.703 489.846 665.357 489.537C665.049 489.189 664.895 488.649 664.895 487.916V476.625C664.895 476.007 664.742 475.525 664.434 475.177C664.126 474.83 663.665 474.656 663.05 474.656H655.436V487.916C655.436 488.649 655.263 489.189 654.917 489.537C654.609 489.846 654.09 490 653.36 490Z" fill="white"/>
<path d="M686.53 490C685.8 490 685.261 489.846 684.915 489.537C684.608 489.189 684.454 488.649 684.454 487.916V481.025C684.454 480.292 684.608 479.771 684.915 479.462C685.261 479.115 685.8 478.941 686.53 478.941H692.241V459.486H686.53C685.8 459.486 685.261 459.332 684.915 459.023C684.608 458.676 684.454 458.135 684.454 457.402V450.396C684.454 449.662 684.608 449.141 684.915 448.832C685.261 448.485 685.8 448.311 686.53 448.311H711.102C711.832 448.311 712.351 448.485 712.659 448.832C713.005 449.141 713.178 449.662 713.178 450.396V457.402C713.178 458.135 713.005 458.676 712.659 459.023C712.351 459.332 711.832 459.486 711.102 459.486H705.507V478.941H711.102C711.832 478.941 712.351 479.115 712.659 479.462C713.005 479.771 713.178 480.292 713.178 481.025V487.916C713.178 488.649 713.005 489.189 712.659 489.537C712.351 489.846 711.832 490 711.102 490H686.53Z" fill="white"/>
<path d="M731.028 490H722.376C721.646 490 721.107 489.846 720.761 489.537C720.454 489.189 720.3 488.649 720.3 487.916V450.396C720.3 449.662 720.454 449.141 720.761 448.832C721.107 448.485 721.646 448.311 722.376 448.311H728.375C729.106 448.311 729.721 448.427 730.221 448.659C730.759 448.89 731.278 449.296 731.778 449.875L742.968 462.729V450.396C742.968 449.662 743.122 449.141 743.429 448.832C743.775 448.485 744.314 448.311 745.044 448.311H753.696C754.427 448.311 754.946 448.485 755.254 448.832C755.6 449.141 755.773 449.662 755.773 450.396V487.916C755.773 488.649 755.6 489.189 755.254 489.537C754.946 489.846 754.427 490 753.696 490H745.044C744.314 490 743.775 489.846 743.429 489.537C743.122 489.189 742.968 488.649 742.968 487.916V480.794L733.105 468.808V487.916C733.105 488.649 732.932 489.189 732.586 489.537C732.278 489.846 731.759 490 731.028 490Z" fill="white"/>
<path d="M806.34 490H792.266C787.459 490 783.883 489.035 781.538 487.105C779.23 485.175 778.077 482.203 778.077 478.188V460.181C778.077 456.167 779.23 453.194 781.538 451.264C783.883 449.296 787.459 448.311 792.266 448.311H806.34C807.07 448.311 807.589 448.485 807.897 448.832C808.243 449.141 808.416 449.662 808.416 450.396V457.402C808.416 458.135 808.243 458.676 807.897 459.023C807.589 459.332 807.07 459.486 806.34 459.486H794.746C793.554 459.486 792.67 459.737 792.093 460.239C791.516 460.702 791.228 461.416 791.228 462.381V476.162C791.228 477.127 791.516 477.841 792.093 478.304C792.67 478.729 793.554 478.941 794.746 478.941H806.34C807.07 478.941 807.589 479.115 807.897 479.462C808.243 479.771 808.416 480.292 808.416 481.025V487.916C808.416 488.649 808.243 489.189 807.897 489.537C807.589 489.846 807.07 490 806.34 490Z" fill="white"/>
<path d="M829.984 460.471L827.273 469.271H836.329L833.618 460.471C833.464 460.123 833.291 459.872 833.099 459.718C832.945 459.563 832.753 459.486 832.522 459.486H831.08C830.849 459.486 830.638 459.563 830.446 459.718C830.292 459.872 830.138 460.123 829.984 460.471ZM826.696 487.916C826.696 488.649 826.523 489.189 826.177 489.537C825.87 489.846 825.351 490 824.62 490H816.141C815.411 490 814.872 489.846 814.526 489.537C814.218 489.189 814.065 488.649 814.065 487.916V472.63C814.065 471.472 814.238 470.14 814.584 468.635C814.968 467.129 815.545 465.373 816.314 463.366L821.332 450.222C821.563 449.566 821.909 449.083 822.37 448.775C822.87 448.466 823.505 448.311 824.274 448.311H839.79C840.52 448.311 841.116 448.466 841.578 448.775C842.078 449.083 842.443 449.566 842.674 450.222L847.692 463.366C848.461 465.373 849.018 467.129 849.364 468.635C849.749 470.14 849.941 471.472 849.941 472.63V487.916C849.941 488.649 849.768 489.189 849.422 489.537C849.114 489.846 848.595 490 847.865 490H839.155C838.386 490 837.809 489.846 837.425 489.537C837.079 489.189 836.906 488.649 836.906 487.916V479.809H826.696V487.916Z" fill="white"/>
<path d="M870.098 458.734V466.145H874.424C875.424 466.145 876.097 465.894 876.443 465.392C876.789 464.852 876.962 464.196 876.962 463.423V461.455C876.962 460.683 876.789 460.046 876.443 459.544C876.097 459.004 875.424 458.734 874.424 458.734H870.098ZM868.022 490H859.139C858.409 490 857.87 489.846 857.524 489.537C857.217 489.189 857.063 488.649 857.063 487.916V450.396C857.063 449.662 857.217 449.141 857.524 448.832C857.87 448.485 858.409 448.311 859.139 448.311H878.346C882.653 448.311 885.614 449.218 887.229 451.033C888.883 452.808 889.709 455.124 889.709 457.981V460.644C889.709 462.265 889.459 463.655 888.96 464.813C888.498 465.932 887.671 466.743 886.479 467.245C888.556 467.477 890.228 468.326 891.497 469.793C892.805 471.259 893.459 473.209 893.459 475.641V487.916C893.459 488.649 893.285 489.189 892.939 489.537C892.632 489.846 892.113 490 891.382 490H882.442C881.711 490 881.173 489.846 880.827 489.537C880.519 489.189 880.365 488.649 880.365 487.916V479.057C880.365 478.207 880.192 477.59 879.846 477.204C879.539 476.779 878.981 476.567 878.173 476.567H870.098V487.916C870.098 488.649 869.925 489.189 869.579 489.537C869.272 489.846 868.752 490 868.022 490Z" fill="white"/>
<path d="M928.768 490H902.005C901.274 490 900.736 489.846 900.389 489.537C900.082 489.189 899.928 488.649 899.928 487.916V450.396C899.928 449.662 900.082 449.141 900.389 448.832C900.736 448.485 901.274 448.311 902.005 448.311H928.768C929.498 448.311 930.018 448.485 930.325 448.832C930.671 449.141 930.844 449.662 930.844 450.396V457.17C930.844 457.904 930.671 458.444 930.325 458.791C930.018 459.1 929.498 459.255 928.768 459.255H912.848V463.713H924.096C924.826 463.713 925.346 463.887 925.653 464.234C925.999 464.543 926.172 465.064 926.172 465.797V471.993C926.172 472.726 925.999 473.267 925.653 473.614C925.346 473.923 924.826 474.077 924.096 474.077H912.848V479.057H928.768C929.498 479.057 930.018 479.23 930.325 479.578C930.671 479.887 930.844 480.408 930.844 481.141V487.916C930.844 488.649 930.671 489.189 930.325 489.537C930.018 489.846 929.498 490 928.768 490Z" fill="white"/>
<path d="M618.067 418.716H609.119C608.388 418.716 607.849 418.561 607.503 418.25C607.195 417.901 607.041 417.357 607.041 416.619V378.879C607.041 378.142 607.195 377.617 607.503 377.307C607.849 376.957 608.388 376.783 609.119 376.783H626.784C632.018 376.783 635.597 377.831 637.521 379.928C639.445 382.024 640.408 384.762 640.408 388.14V395.594C640.408 398.972 639.445 401.71 637.521 403.806C635.597 405.903 632.018 406.951 626.784 406.951H620.145V416.619C620.145 417.357 619.972 417.901 619.625 418.25C619.317 418.561 618.798 418.716 618.067 418.716ZM620.03 387.674V396.468H625.225C626.341 396.468 627.072 396.177 627.419 395.594C627.765 395.012 627.938 394.352 627.938 393.614V390.527C627.938 389.79 627.765 389.13 627.419 388.547C627.072 387.965 626.341 387.674 625.225 387.674H620.03Z" fill="#FB5A80"/>
<path d="M647.545 418.716C646.814 418.716 646.275 418.561 645.928 418.25C645.621 417.901 645.467 417.357 645.467 416.619V409.689C645.467 408.951 645.621 408.427 645.928 408.116C646.275 407.767 646.814 407.592 647.545 407.592H653.26V388.023H647.545C646.814 388.023 646.275 387.868 645.928 387.557C645.621 387.208 645.467 386.664 645.467 385.926V378.879C645.467 378.142 645.621 377.617 645.928 377.307C646.275 376.957 646.814 376.783 647.545 376.783H672.136C672.868 376.783 673.387 376.957 673.695 377.307C674.041 377.617 674.215 378.142 674.215 378.879V385.926C674.215 386.664 674.041 387.208 673.695 387.557C673.387 387.868 672.868 388.023 672.136 388.023H666.537V407.592H672.136C672.868 407.592 673.387 407.767 673.695 408.116C674.041 408.427 674.215 408.951 674.215 409.689V416.619C674.215 417.357 674.041 417.901 673.695 418.25C673.387 418.561 672.868 418.716 672.136 418.716H647.545Z" fill="#FB5A80"/>
<path d="M692.079 418.716H683.42C682.689 418.716 682.15 418.561 681.804 418.25C681.496 417.901 681.342 417.357 681.342 416.619V378.879C681.342 378.142 681.496 377.617 681.804 377.307C682.15 376.957 682.689 376.783 683.42 376.783H689.424C690.155 376.783 690.771 376.899 691.271 377.132C691.81 377.365 692.329 377.773 692.83 378.355L704.029 391.285V378.879C704.029 378.142 704.183 377.617 704.491 377.307C704.837 376.957 705.376 376.783 706.107 376.783H714.766C715.497 376.783 716.017 376.957 716.325 377.307C716.671 377.617 716.844 378.142 716.844 378.879V416.619C716.844 417.357 716.671 417.901 716.325 418.25C716.017 418.561 715.497 418.716 714.766 418.716H706.107C705.376 418.716 704.837 418.561 704.491 418.25C704.183 417.901 704.029 417.357 704.029 416.619V409.456L694.158 397.4V416.619C694.158 417.357 693.984 417.901 693.638 418.25C693.33 418.561 692.81 418.716 692.079 418.716Z" fill="#FB5A80"/>
<path d="M735.833 418.716H726.885C726.154 418.716 725.615 418.561 725.269 418.25C724.961 417.901 724.807 417.357 724.807 416.619V378.879C724.807 378.142 724.961 377.617 725.269 377.307C725.615 376.957 726.154 376.783 726.885 376.783H735.833C736.564 376.783 737.083 376.957 737.391 377.307C737.738 377.617 737.911 378.142 737.911 378.879V392.275H740.22L746.166 378.705C746.435 378.006 746.801 377.52 747.263 377.249C747.725 376.938 748.321 376.783 749.052 376.783H757.942C758.597 376.783 759.039 376.957 759.27 377.307C759.501 377.617 759.482 378.083 759.212 378.705L753.324 392.275C755.479 392.391 757.192 393.168 758.462 394.604C759.77 396.002 760.425 397.866 760.425 400.195V416.619C760.425 417.357 760.251 417.901 759.905 418.25C759.597 418.561 759.078 418.716 758.346 418.716H749.456C748.725 418.716 748.186 418.561 747.84 418.25C747.532 417.901 747.378 417.357 747.378 416.619V405.262C747.378 404.641 747.224 404.156 746.916 403.806C746.609 403.457 746.147 403.282 745.531 403.282H737.911V416.619C737.911 417.357 737.738 417.901 737.391 418.25C737.083 418.561 736.564 418.716 735.833 418.716Z" fill="#FB5A80"/>
<path d="M804.404 418.716H784.951C784.219 418.716 783.681 418.561 783.334 418.25C783.026 417.901 782.872 417.357 782.872 416.619V378.879C782.872 378.142 783.026 377.617 783.334 377.307C783.681 376.957 784.219 376.783 784.951 376.783H804.404C809.215 376.783 812.775 377.753 815.084 379.695C817.432 381.636 818.605 384.626 818.605 388.664V406.835C818.605 410.873 817.432 413.863 815.084 415.804C812.775 417.745 809.215 418.716 804.404 418.716ZM795.976 387.907V407.708H802.846C803.77 407.708 804.443 407.476 804.866 407.01C805.328 406.544 805.559 405.825 805.559 404.855V390.702C805.559 389.732 805.328 389.033 804.866 388.606C804.443 388.14 803.77 387.907 802.846 387.907H795.976Z" fill="#FB5A80"/>
<path d="M827.097 418.716C826.366 418.716 825.827 418.561 825.48 418.25C825.172 417.901 825.019 417.357 825.019 416.619V409.689C825.019 408.951 825.172 408.427 825.48 408.116C825.827 407.767 826.366 407.592 827.097 407.592H832.812V388.023H827.097C826.366 388.023 825.827 387.868 825.48 387.557C825.172 387.208 825.019 386.664 825.019 385.926V378.879C825.019 378.142 825.172 377.617 825.48 377.307C825.827 376.957 826.366 376.783 827.097 376.783H851.689C852.42 376.783 852.939 376.957 853.247 377.307C853.594 377.617 853.767 378.142 853.767 378.879V385.926C853.767 386.664 853.594 387.208 853.247 387.557C852.939 387.868 852.42 388.023 851.689 388.023H846.089V407.592H851.689C852.42 407.592 852.939 407.767 853.247 408.116C853.594 408.427 853.767 408.951 853.767 409.689V416.619C853.767 417.357 853.594 417.901 853.247 418.25C852.939 418.561 852.42 418.716 851.689 418.716H827.097Z" fill="#FB5A80"/>
<path d="M875.961 389.013L873.248 397.866H882.311L879.598 389.013C879.444 388.664 879.271 388.411 879.078 388.256C878.924 388.101 878.732 388.023 878.501 388.023H877.058C876.827 388.023 876.615 388.101 876.423 388.256C876.269 388.411 876.115 388.664 875.961 389.013ZM872.671 416.619C872.671 417.357 872.498 417.901 872.151 418.25C871.843 418.561 871.324 418.716 870.593 418.716H862.107C861.375 418.716 860.837 418.561 860.49 418.25C860.182 417.901 860.028 417.357 860.028 416.619V401.244C860.028 400.079 860.202 398.739 860.548 397.225C860.933 395.711 861.51 393.944 862.28 391.925L867.302 378.705C867.533 378.045 867.879 377.559 868.341 377.249C868.841 376.938 869.476 376.783 870.246 376.783H885.775C886.506 376.783 887.103 376.938 887.564 377.249C888.065 377.559 888.43 378.045 888.661 378.705L893.684 391.925C894.453 393.944 895.011 395.711 895.358 397.225C895.742 398.739 895.935 400.079 895.935 401.244V416.619C895.935 417.357 895.762 417.901 895.415 418.25C895.107 418.561 894.588 418.716 893.857 418.716H885.14C884.37 418.716 883.793 418.561 883.408 418.25C883.062 417.901 882.888 417.357 882.888 416.619V408.466H872.671V416.619Z" fill="#FB5A80"/>
<path d="M913.742 418.716H905.141C904.409 418.716 903.871 418.561 903.524 418.25C903.216 417.901 903.062 417.357 903.062 416.619V378.879C903.062 378.142 903.216 377.617 903.524 377.307C903.871 376.957 904.409 376.783 905.141 376.783H914.435C915.051 376.783 915.551 376.919 915.936 377.19C916.359 377.462 916.744 377.909 917.09 378.53L922.286 388.023C922.478 388.373 922.632 388.625 922.748 388.78C922.901 388.936 923.094 389.013 923.325 389.013H923.844C924.075 389.013 924.248 388.936 924.364 388.78C924.518 388.625 924.691 388.373 924.883 388.023L930.021 378.53C930.368 377.909 930.733 377.462 931.118 377.19C931.541 376.919 932.061 376.783 932.677 376.783H942.028C942.76 376.783 943.279 376.957 943.587 377.307C943.933 377.617 944.107 378.142 944.107 378.879V416.619C944.107 417.357 943.933 417.901 943.587 418.25C943.279 418.561 942.76 418.716 942.028 418.716H933.138C932.407 418.716 931.868 418.561 931.522 418.25C931.214 417.901 931.06 417.357 931.06 416.619V396.119L927.654 402.467C927.308 403.127 926.885 403.612 926.384 403.923C925.923 404.195 925.326 404.331 924.595 404.331H922.286C921.555 404.331 920.939 404.195 920.438 403.923C919.977 403.612 919.573 403.127 919.226 402.467L915.82 396.119V416.619C915.82 417.357 915.647 417.901 915.301 418.25C914.993 418.561 914.473 418.716 913.742 418.716Z" fill="#FB5A80"/>
<path d="M987.265 407.708C987.265 409.495 986.996 411.125 986.457 412.601C985.957 414.037 985.033 415.28 983.686 416.328C982.378 417.338 980.55 418.134 978.202 418.716C975.893 419.298 972.949 419.59 969.37 419.59C965.791 419.59 962.828 419.298 960.48 418.716C958.132 418.134 956.285 417.338 954.938 416.328C953.63 415.28 952.706 414.037 952.167 412.601C951.667 411.125 951.417 409.495 951.417 407.708V387.848C951.417 386.062 951.667 384.451 952.167 383.014C952.706 381.539 953.63 380.277 954.938 379.229C956.285 378.18 958.132 377.365 960.48 376.783C962.828 376.2 965.791 375.909 969.37 375.909C972.949 375.909 975.893 376.2 978.202 376.783C980.55 377.365 982.378 378.18 983.686 379.229C985.033 380.277 985.957 381.539 986.457 383.014C986.996 384.451 987.265 386.062 987.265 387.848V407.708ZM964.521 405.612C964.521 406.388 964.809 407.048 965.387 407.592C965.964 408.097 967.292 408.349 969.37 408.349C971.448 408.349 972.776 408.097 973.353 407.592C973.93 407.048 974.219 406.388 974.219 405.612V389.945C974.219 389.207 973.93 388.586 973.353 388.081C972.776 387.538 971.448 387.266 969.37 387.266C967.292 387.266 965.964 387.538 965.387 388.081C964.809 388.586 964.521 389.207 964.521 389.945V405.612Z" fill="#FB5A80"/>
<path d="M1005.35 418.716H996.693C995.962 418.716 995.423 418.561 995.076 418.25C994.768 417.901 994.614 417.357 994.614 416.619V378.879C994.614 378.142 994.768 377.617 995.076 377.307C995.423 376.957 995.962 376.783 996.693 376.783H1002.7C1003.43 376.783 1004.04 376.899 1004.54 377.132C1005.08 377.365 1005.6 377.773 1006.1 378.355L1017.3 391.285V378.879C1017.3 378.142 1017.46 377.617 1017.76 377.307C1018.11 376.957 1018.65 376.783 1019.38 376.783H1028.04C1028.77 376.783 1029.29 376.957 1029.6 377.307C1029.94 377.617 1030.12 378.142 1030.12 378.879V416.619C1030.12 417.357 1029.94 417.901 1029.6 418.25C1029.29 418.561 1028.77 418.716 1028.04 418.716H1019.38C1018.65 418.716 1018.11 418.561 1017.76 418.25C1017.46 417.901 1017.3 417.357 1017.3 416.619V409.456L1007.43 397.4V416.619C1007.43 417.357 1007.26 417.901 1006.91 418.25C1006.6 418.561 1006.08 418.716 1005.35 418.716Z" fill="#FB5A80"/>
<path d="M1059.61 418.716H1040.16C1039.43 418.716 1038.89 418.561 1038.54 418.25C1038.23 417.901 1038.08 417.357 1038.08 416.619V378.879C1038.08 378.142 1038.23 377.617 1038.54 377.307C1038.89 376.957 1039.43 376.783 1040.16 376.783H1059.61C1064.42 376.783 1067.98 377.753 1070.29 379.695C1072.64 381.636 1073.81 384.626 1073.81 388.664V406.835C1073.81 410.873 1072.64 413.863 1070.29 415.804C1067.98 417.745 1064.42 418.716 1059.61 418.716ZM1051.18 387.907V407.708H1058.05C1058.98 407.708 1059.65 407.476 1060.07 407.01C1060.53 406.544 1060.77 405.825 1060.77 404.855V390.702C1060.77 389.732 1060.53 389.033 1060.07 388.606C1059.65 388.14 1058.98 387.907 1058.05 387.907H1051.18Z" fill="#FB5A80"/>
</svg>
